<?xml version="1.0" encoding="utf-8"?>
<!-- Generator: Adobe Illustrator 17.1.0, SVG Export Plug-In . SVG Version: 6.00 Build 0)  -->
<!DOCTYPE svg PUBLIC "-//W3C//DTD SVG 1.1//EN" "http://www.w3.org/Graphics/SVG/1.1/DTD/svg11.dtd">
<svg version="1.1" xmlns="http://www.w3.org/2000/svg" xmlns:xlink="http://www.w3.org/1999/xlink" x="0px" y="0px"
	 viewBox="0 0 347 157" enable-background="new 0 0 347 157" xml:space="preserve">
<g id="Google_Pin">
	<g>
		<linearGradient id="SVGID_1_" gradientUnits="userSpaceOnUse" x1="169.3524" y1="151.5871" x2="169.3524" y2="110.0516">
			<stop  offset="0" style="stop-color:#F3483C"/>
			<stop  offset="1" style="stop-color:#FB7468"/>
		</linearGradient>
		<path fill="url(#SVGID_1_)" d="M169.4,151.6c0.3-5.8,3.5-15.3,8.1-21.2c2.5-3.2,3.7-6.4,3.7-8.3c0-6.6-5.3-12-11.9-12h0
			c-6.6,0-11.9,5.4-11.9,12c0,1.9,1.2,5.1,3.7,8.3c4.6,5.9,7.8,15.4,8.1,21.2H169.4z"/>
		<path fill="#C7443C" d="M169.8,152h-1l0-0.4c-0.3-5.6-3.4-15-8-20.9c-2.8-3.6-3.8-6.8-3.8-8.6c0-6.9,5.5-12.5,12.4-12.5
			c6.8,0,12.4,5.6,12.4,12.5c0,1.8-1,5-3.8,8.6c-4.7,6-7.8,15.3-8,20.9L169.8,152L169.8,152z M169.4,110.5
			c-6.3,0-11.4,5.2-11.4,11.6c0,1.6,0.9,4.6,3.6,8c4,5.1,6.8,12.5,7.8,18.2c1-5.7,3.9-13.1,7.8-18.2c2.7-3.4,3.6-6.4,3.6-8
			C180.8,115.7,175.7,110.5,169.4,110.5L169.4,110.5z"/>
	</g>
	<circle fill="#722727" cx="169" cy="121.9" r="3.8"/>
</g>
<g id="Rounded_Rectangle_1_xA0_Image_1_" display="none">
	
		<image display="inline" overflow="visible" width="285" height="72" id="Rounded_Rectangle_1_xA0_Image" xlink:href="AEA3A12F1A9DAA0B.png"  transform="matrix(1 0 0 1 3 39)">
	</image>
</g>
<g id="Layer_5">
	
		<image overflow="visible" opacity="0.49" width="372" height="104" xlink:href="AEA3A12F1A9DAA09.png"  transform="matrix(1 0 0 1 -8.6 22.4)">
	</image>
	<g>
		<g>
			<path fill="#FEFEFE" d="M333.3,87.7c0,6.6-6.5,12-14.5,12H20.7c-8,0-14.5-5.4-14.5-12V53c0-6.6,6.5-12,14.5-12h298.1
				c8,0,14.5,5.4,14.5,12V87.7z"/>
		</g>
	</g>
</g>
<g id="Layer_4">
	<g>
		<g>
			<path fill="#FDFEFE" d="M297,85c0-10.3,0-20.7,0-31c0.4-0.3,0.8-0.5,1.3-0.6c7,3.7,11.5,10,17,16.1c-5.5,6.2-10,12.4-17,16.1
				C297.8,85.5,297.4,85.3,297,85z"/>
			<path fill="#FDFDFE" d="M324,69c3.3,17.2-1.6,26.5-21,22c-0.3-0.4-0.5-0.8-0.6-1.2c0.1-1.6,1.1-2.8,2.1-3.8
				c6.1-5.8,11.3-12.4,18.2-17.4C323.2,68.5,323.6,68.7,324,69z"/>
			<path fill="#FEFEFE" d="M324,69c-0.3,0-0.6,0-0.8,0c-1.2,0-2.3-0.6-3.1-1.4c-5.8-6.1-12.5-11.4-17.5-18.3c-0.1-0.5,0-0.9,0.4-1.3
				C320.9,44.1,327.9,51.1,324,69z"/>
			<path fill="#FBFDFE" d="M303,48c0,0.2,0,0.5,0,0.7c-0.8,2.5-2.9,3.9-4.9,5.3c-0.4,0-0.7,0-1.1,0c0-2,0-4,0-6
				C299,48,301,48,303,48z"/>
			<path fill="#F0F7FC" d="M303,90.1c0,0.3,0,0.6,0,0.9c-5.1,1.1-7.1-0.9-6-6c0.3,0,0.6,0,0.9,0C300.1,86.2,301.8,87.9,303,90.1z"/>
			<path fill="#0579E0" d="M303,90.1c-1.7-1.7-3.4-3.4-5.1-5.1c5-5.3,10-10.7,14.8-15.9c-4.5-4.7-9.6-9.9-14.7-15.1
				c1.6-1.8,3.3-3.5,4.9-5.3c6.7,6.8,13.4,13.5,20.2,20.3C316.4,76,309.7,83,303,90.1z"/>
		</g>
	</g>
</g>
<g id="Example_Engineering">
	<g id="EXAMPLE">
		<g enable-background="new    ">
			<path fill="#0479E1" d="M18.2,58c0-0.2,0.1-0.4,0.2-0.5c0.1-0.1,0.3-0.2,0.5-0.2h14.8c0.2,0,0.4,0.1,0.5,0.2
				c0.1,0.1,0.2,0.3,0.2,0.5v3.7c0,0.2-0.1,0.3-0.2,0.5c-0.1,0.2-0.3,0.2-0.5,0.2H24v3.7h7.5c0.2,0,0.3,0,0.5,0.1
				c0.1,0.1,0.2,0.2,0.2,0.4v3.2c0,0.1-0.1,0.3-0.2,0.4c-0.1,0.1-0.3,0.2-0.5,0.2H24v3.8h10.1c0.4,0,0.7,0.2,0.7,0.7v3.8
				c0,0.1,0,0.2-0.1,0.3c0,0.3-0.2,0.4-0.6,0.4H18.9c-0.2,0-0.4-0.1-0.5-0.2c-0.1-0.1-0.2-0.3-0.2-0.5V58z"/>
			<path fill="#0479E1" d="M36.3,79.1c0.1-0.2,0.2-0.3,0.2-0.5c0.1-0.2,0.2-0.3,0.3-0.5l6.7-10.1c-1.1-1.7-2.3-3.4-3.4-5.1
				c-1.1-1.7-2.3-3.4-3.4-5.1c-0.1-0.1-0.1-0.2-0.1-0.2c0-0.1-0.1-0.1-0.1-0.2c0-0.1,0.1-0.1,0.2-0.1c0.1,0,0.2,0,0.3-0.1h5.2
				c0.4,0,0.7,0.2,0.9,0.6l3.7,5.5l3.7-5.5c0.2-0.4,0.5-0.6,0.9-0.6H56c0.1,0,0.2,0,0.3,0c0.1,0,0.2,0,0.3,0c0.1,0,0.2,0,0.2,0.1
				c0.1,0,0.1,0.1,0.1,0.1c0,0.1-0.1,0.2-0.2,0.4l-6.9,10.3l7,10.5c0.1,0.1,0.2,0.3,0.2,0.4c0.1,0.1,0.1,0.2,0.1,0.3
				c0,0.1-0.1,0.2-0.3,0.2h-5.4c-0.2,0-0.3,0-0.5-0.1s-0.2-0.2-0.3-0.4l-4.1-6l-4,6c-0.1,0.2-0.2,0.3-0.3,0.4s-0.3,0.1-0.5,0.1h-5.1
				h-0.3c-0.1,0-0.1,0-0.2-0.1s-0.1-0.1-0.1-0.2C36.2,79.2,36.3,79.1,36.3,79.1z"/>
			<path fill="#0479E1" d="M66.6,57.8c0-0.1,0-0.1,0.1-0.2c0.1-0.1,0.1-0.1,0.2-0.2c0.1-0.1,0.2-0.1,0.3-0.1c0.1,0,0.2-0.1,0.3-0.1
				h3.8c0.2,0,0.3,0.1,0.4,0.2c0.1,0.1,0.2,0.2,0.3,0.3l0.4,0.9l7.9,20.3c0.1,0.2,0.1,0.4,0,0.5c-0.1,0.1-0.3,0.2-0.6,0.2h-4.3
				c-0.2,0-0.4,0-0.5-0.1c-0.1-0.1-0.2-0.2-0.3-0.4c-0.2-0.5-0.4-1-0.6-1.5s-0.4-1-0.6-1.5h-7.9c-0.2,0.5-0.4,1-0.6,1.5
				c-0.2,0.5-0.4,1-0.6,1.5c-0.1,0.4-0.4,0.6-0.8,0.6H59c-0.2,0-0.3,0-0.5-0.1c-0.1-0.1-0.1-0.2-0.1-0.4L66.6,57.8z M69.3,64.2
				c-0.2,0.5-0.4,1.1-0.6,1.6c-0.2,0.6-0.4,1.2-0.6,1.8s-0.4,1.2-0.6,1.8c-0.2,0.6-0.4,1.1-0.6,1.6h4.6L69.3,64.2z"/>
			<path fill="#0479E1" d="M84.4,57.9c0-0.2,0.1-0.3,0.2-0.5c0.1-0.1,0.3-0.2,0.5-0.2h5.2c0.4,0,0.6,0.2,0.7,0.6L95,71.4l4.1-13.6
				c0.1-0.4,0.4-0.6,0.8-0.6h5.1c0.2,0,0.3,0.1,0.5,0.2c0.1,0.1,0.2,0.3,0.2,0.5c0.3,3.5,0.7,7,1.1,10.5c0.4,3.5,0.7,6.9,1.1,10.5
				v0.1c0,0.4-0.2,0.6-0.7,0.6H103c-0.5,0-0.7-0.2-0.7-0.7L101,67.3l-3.4,11.6c0,0.1-0.1,0.2-0.2,0.4c-0.1,0.1-0.2,0.2-0.4,0.2h-3.9
				c-0.1,0-0.2-0.1-0.4-0.2c-0.1-0.1-0.2-0.3-0.2-0.4l-3.4-11.6l-1.3,11.5c0,0.4-0.3,0.7-0.7,0.7h-4.2c-0.4,0-0.6-0.2-0.6-0.7
				L84.4,57.9z"/>
			<path fill="#0479E1" d="M111.6,58c0-0.2,0.1-0.4,0.2-0.5c0.1-0.1,0.3-0.2,0.5-0.2h9.6c0.7,0,1.3,0.1,1.9,0.3s1.2,0.5,1.7,0.8
				c0.5,0.3,1,0.7,1.4,1.2c0.4,0.5,0.8,1,1,1.5c0.3,0.5,0.5,1.1,0.7,1.7c0.1,0.6,0.2,1.2,0.2,1.8c0,0.9-0.2,1.8-0.5,2.6
				c-0.3,0.9-0.8,1.6-1.4,2.3c-0.6,0.7-1.3,1.2-2.2,1.6c-0.8,0.4-1.8,0.6-2.8,0.6h-4.5v7.1c0,0.4-0.2,0.6-0.7,0.6h-4.4
				c-0.2,0-0.4-0.1-0.5-0.2c-0.1-0.1-0.2-0.3-0.2-0.5V58z M122.8,64.5c0-0.3-0.1-0.6-0.2-0.9c-0.1-0.3-0.3-0.6-0.5-0.8
				c-0.2-0.2-0.4-0.4-0.7-0.6c-0.3-0.1-0.6-0.2-1-0.2h-3.2v5h3.2c0.4,0,0.7-0.1,1-0.2c0.3-0.1,0.5-0.3,0.7-0.6s0.3-0.5,0.4-0.8
				C122.8,65.1,122.8,64.8,122.8,64.5z"/>
			<path fill="#0479E1" d="M131.4,57.9c0-0.2,0.1-0.3,0.2-0.5c0.1-0.1,0.3-0.2,0.5-0.2h4.4c0.2,0,0.3,0.1,0.5,0.2
				c0.1,0.1,0.2,0.3,0.2,0.5v16.3h8.2c0.2,0,0.3,0.1,0.5,0.2c0.1,0.1,0.2,0.3,0.2,0.5v3.9c0,0.2-0.1,0.3-0.2,0.5
				c-0.1,0.1-0.3,0.2-0.5,0.2h-13.4c-0.4,0-0.7-0.2-0.7-0.7V57.9z"/>
			<path fill="#0479E1" d="M149.6,58c0-0.2,0.1-0.4,0.2-0.5c0.1-0.1,0.3-0.2,0.5-0.2h14.8c0.2,0,0.4,0.1,0.5,0.2
				c0.1,0.1,0.2,0.3,0.2,0.5v3.7c0,0.2-0.1,0.3-0.2,0.5c-0.1,0.2-0.3,0.2-0.5,0.2h-9.7v3.7h7.5c0.2,0,0.3,0,0.5,0.1s0.2,0.2,0.2,0.4
				v3.2c0,0.1-0.1,0.3-0.2,0.4c-0.1,0.1-0.3,0.2-0.5,0.2h-7.5v3.8h10.1c0.4,0,0.7,0.2,0.7,0.7v3.8c0,0.1,0,0.2-0.1,0.3
				c0,0.3-0.2,0.4-0.6,0.4h-15.1c-0.2,0-0.4-0.1-0.5-0.2c-0.1-0.1-0.2-0.3-0.2-0.5V58z"/>
		</g>
	</g>
	<g id="ENGINEERING_x2C__INC.">
		<g enable-background="new    ">
			<path fill="#282828" d="M170.5,60.1c0-0.1,0-0.2,0.1-0.2c0,0,0.1-0.1,0.2-0.1h5.9c0.1,0,0.2,0,0.2,0.1s0.1,0.1,0.1,0.2v1.5
				c0,0.1,0,0.1-0.1,0.2c0,0.1-0.1,0.1-0.2,0.1h-3.9v1.5h3c0.1,0,0.1,0,0.2,0.1c0,0,0.1,0.1,0.1,0.2v1.3c0,0.1,0,0.1-0.1,0.2
				s-0.1,0.1-0.2,0.1h-3v1.5h4c0.2,0,0.3,0.1,0.3,0.3v1.5c0,0,0,0.1,0,0.1c0,0.1-0.1,0.2-0.2,0.2h-6.1c-0.1,0-0.1,0-0.2-0.1
				s-0.1-0.1-0.1-0.2V60.1z"/>
			<path fill="#282828" d="M178.6,60.1c0-0.1,0-0.1,0.1-0.2c0-0.1,0.1-0.1,0.2-0.1h2c0.1,0,0.1,0,0.2,0s0.1,0.1,0.2,0.1
				c0.5,0.8,1,1.6,1.5,2.4c0.5,0.8,1,1.6,1.5,2.4V60c0-0.1,0-0.1,0.1-0.2c0,0,0.1-0.1,0.2-0.1h1.7c0.1,0,0.2,0,0.2,0.1
				c0.1,0,0.1,0.1,0.1,0.2v8.4c0,0.1,0,0.1-0.1,0.2c0,0-0.1,0.1-0.2,0.1h-1.9c-0.1,0-0.1,0-0.1-0.1c0,0-0.1-0.1-0.1-0.1
				c-0.5-0.9-1.1-1.7-1.6-2.6s-1-1.7-1.6-2.6v5.1c0,0.1,0,0.2-0.1,0.2s-0.1,0.1-0.2,0.1h-1.7c-0.1,0-0.2,0-0.2-0.1s-0.1-0.1-0.1-0.2
				V60.1z"/>
			<path fill="#282828" d="M193.9,62.3c-0.2-0.1-0.4-0.3-0.7-0.3c-0.2-0.1-0.5-0.1-0.7-0.1c-0.3,0-0.6,0.1-0.9,0.2s-0.5,0.3-0.7,0.5
				s-0.4,0.5-0.5,0.8c-0.1,0.3-0.2,0.6-0.2,0.9s0.1,0.6,0.2,0.9c0.1,0.3,0.3,0.5,0.5,0.8s0.4,0.4,0.7,0.5s0.6,0.2,0.9,0.2
				c0.1,0,0.3,0,0.4,0c0.1,0,0.3,0,0.4-0.1v-1.6c0-0.1,0-0.1,0.1-0.2c0,0,0.1-0.1,0.2-0.1h1.6c0.1,0,0.1,0,0.2,0.1
				c0.1,0,0.1,0.1,0.1,0.2v2.9c0,0.1-0.1,0.2-0.2,0.3c-0.2,0.1-0.4,0.2-0.6,0.3s-0.5,0.2-0.7,0.2c-0.2,0.1-0.5,0.1-0.8,0.1
				c-0.3,0-0.5,0-0.7,0c-0.4,0-0.8-0.1-1.2-0.2c-0.4-0.1-0.8-0.3-1.1-0.5c-0.3-0.2-0.6-0.4-0.9-0.7s-0.5-0.6-0.7-0.9
				c-0.2-0.3-0.4-0.7-0.5-1.1c-0.1-0.4-0.2-0.8-0.2-1.2c0-0.4,0.1-0.8,0.2-1.2c0.1-0.4,0.3-0.8,0.5-1.1c0.2-0.3,0.4-0.7,0.7-0.9
				s0.6-0.5,0.9-0.7c0.3-0.2,0.7-0.4,1.1-0.5c0.4-0.1,0.8-0.2,1.2-0.2c0.5,0,0.9,0.1,1.4,0.2s0.8,0.3,1.2,0.6c0.1,0,0.1,0.1,0.2,0.2
				s0,0.1,0,0.2l-1,1.4c-0.1,0.1-0.1,0.1-0.2,0.1S194,62.4,193.9,62.3z"/>
			<path fill="#282828" d="M197.4,60.1c0-0.1,0-0.1,0.1-0.2c0-0.1,0.1-0.1,0.2-0.1h1.8c0.1,0,0.1,0,0.2,0.1c0.1,0,0.1,0.1,0.1,0.2
				v8.4c0,0.2-0.1,0.3-0.3,0.3h-1.8c-0.2,0-0.3-0.1-0.3-0.3V60.1z"/>
			<path fill="#282828" d="M201.6,60.1c0-0.1,0-0.1,0.1-0.2c0-0.1,0.1-0.1,0.2-0.1h2c0.1,0,0.1,0,0.2,0s0.1,0.1,0.2,0.1
				c0.5,0.8,1,1.6,1.5,2.4c0.5,0.8,1,1.6,1.5,2.4V60c0-0.1,0-0.1,0.1-0.2c0,0,0.1-0.1,0.2-0.1h1.7c0.1,0,0.2,0,0.2,0.1
				c0.1,0,0.1,0.1,0.1,0.2v8.4c0,0.1,0,0.1-0.1,0.2c0,0-0.1,0.1-0.2,0.1h-1.9c-0.1,0-0.1,0-0.1-0.1c0,0-0.1-0.1-0.1-0.1
				c-0.5-0.9-1.1-1.7-1.6-2.6s-1-1.7-1.6-2.6v5.1c0,0.1,0,0.2-0.1,0.2s-0.1,0.1-0.2,0.1h-1.7c-0.1,0-0.2,0-0.2-0.1s-0.1-0.1-0.1-0.2
				V60.1z"/>
			<path fill="#282828" d="M211.4,60.1c0-0.1,0-0.2,0.1-0.2c0,0,0.1-0.1,0.2-0.1h5.9c0.1,0,0.2,0,0.2,0.1s0.1,0.1,0.1,0.2v1.5
				c0,0.1,0,0.1-0.1,0.2c0,0.1-0.1,0.1-0.2,0.1h-3.9v1.5h3c0.1,0,0.1,0,0.2,0.1c0,0,0.1,0.1,0.1,0.2v1.3c0,0.1,0,0.1-0.1,0.2
				s-0.1,0.1-0.2,0.1h-3v1.5h4c0.2,0,0.3,0.1,0.3,0.3v1.5c0,0,0,0.1,0,0.1c0,0.1-0.1,0.2-0.2,0.2h-6.1c-0.1,0-0.1,0-0.2-0.1
				s-0.1-0.1-0.1-0.2V60.1z"/>
			<path fill="#282828" d="M219.5,60.1c0-0.1,0-0.2,0.1-0.2c0,0,0.1-0.1,0.2-0.1h5.9c0.1,0,0.2,0,0.2,0.1s0.1,0.1,0.1,0.2v1.5
				c0,0.1,0,0.1-0.1,0.2c0,0.1-0.1,0.1-0.2,0.1h-3.9v1.5h3c0.1,0,0.1,0,0.2,0.1c0,0,0.1,0.1,0.1,0.2v1.3c0,0.1,0,0.1-0.1,0.2
				s-0.1,0.1-0.2,0.1h-3v1.5h4c0.2,0,0.3,0.1,0.3,0.3v1.5c0,0,0,0.1,0,0.1c0,0.1-0.1,0.2-0.2,0.2h-6.1c-0.1,0-0.1,0-0.2-0.1
				s-0.1-0.1-0.1-0.2V60.1z"/>
			<path fill="#282828" d="M227.6,60.1c0-0.1,0-0.2,0.1-0.2c0,0,0.1-0.1,0.2-0.1h3.9c0.4,0,0.8,0.1,1.2,0.2c0.4,0.2,0.7,0.4,0.9,0.6
				c0.3,0.3,0.5,0.6,0.6,0.9s0.2,0.7,0.2,1.1c0,0.3,0,0.5-0.1,0.8c-0.1,0.2-0.2,0.5-0.3,0.7s-0.3,0.4-0.5,0.6
				c-0.2,0.2-0.4,0.3-0.6,0.4l1.5,2.9c0,0.1,0.1,0.1,0.1,0.2s0.1,0.1,0.1,0.2c0,0.1,0,0.1-0.1,0.1c0,0-0.1,0.1-0.2,0.1h-2.1
				c-0.1,0-0.1,0-0.2-0.1c-0.1,0-0.1-0.1-0.1-0.2l-1.5-2.7h-1v2.7c0,0.2-0.1,0.3-0.3,0.3h-1.8c-0.1,0-0.1,0-0.2-0.1
				s-0.1-0.1-0.1-0.2V60.1z M232.3,62.7c0-0.1,0-0.2-0.1-0.4s-0.1-0.2-0.2-0.3s-0.2-0.2-0.3-0.3c-0.1-0.1-0.2-0.1-0.4-0.1
				c-0.1,0-0.2,0-0.3,0c-0.1,0-0.2,0-0.3,0h-0.8v2.2h1.1c0.1,0,0.1,0,0.2,0s0.1,0,0.2,0c0.1,0,0.3-0.1,0.4-0.1
				c0.1-0.1,0.2-0.1,0.3-0.2c0.1-0.1,0.1-0.2,0.2-0.3S232.3,62.9,232.3,62.7z"/>
			<path fill="#282828" d="M236,60.1c0-0.1,0-0.1,0.1-0.2c0-0.1,0.1-0.1,0.2-0.1h1.8c0.1,0,0.1,0,0.2,0.1c0.1,0,0.1,0.1,0.1,0.2v8.4
				c0,0.2-0.1,0.3-0.3,0.3h-1.8c-0.2,0-0.3-0.1-0.3-0.3V60.1z"/>
			<path fill="#282828" d="M240.3,60.1c0-0.1,0-0.1,0.1-0.2c0-0.1,0.1-0.1,0.2-0.1h2c0.1,0,0.1,0,0.2,0s0.1,0.1,0.2,0.1
				c0.5,0.8,1,1.6,1.5,2.4c0.5,0.8,1,1.6,1.5,2.4V60c0-0.1,0-0.1,0.1-0.2c0,0,0.1-0.1,0.2-0.1h1.7c0.1,0,0.2,0,0.2,0.1
				c0.1,0,0.1,0.1,0.1,0.2v8.4c0,0.1,0,0.1-0.1,0.2c0,0-0.1,0.1-0.2,0.1h-1.9c-0.1,0-0.1,0-0.1-0.1c0,0-0.1-0.1-0.1-0.1
				c-0.5-0.9-1.1-1.7-1.6-2.6s-1-1.7-1.6-2.6v5.1c0,0.1,0,0.2-0.1,0.2s-0.1,0.1-0.2,0.1h-1.7c-0.1,0-0.2,0-0.2-0.1s-0.1-0.1-0.1-0.2
				V60.1z"/>
			<path fill="#282828" d="M255.7,62.3c-0.2-0.1-0.4-0.3-0.7-0.3c-0.2-0.1-0.5-0.1-0.7-0.1c-0.3,0-0.6,0.1-0.9,0.2s-0.5,0.3-0.7,0.5
				s-0.4,0.5-0.5,0.8c-0.1,0.3-0.2,0.6-0.2,0.9s0.1,0.6,0.2,0.9c0.1,0.3,0.3,0.5,0.5,0.8s0.4,0.4,0.7,0.5s0.6,0.2,0.9,0.2
				c0.1,0,0.3,0,0.4,0c0.1,0,0.3,0,0.4-0.1v-1.6c0-0.1,0-0.1,0.1-0.2c0,0,0.1-0.1,0.2-0.1h1.6c0.1,0,0.1,0,0.2,0.1
				c0.1,0,0.1,0.1,0.1,0.2v2.9c0,0.1-0.1,0.2-0.2,0.3c-0.2,0.1-0.4,0.2-0.6,0.3s-0.5,0.2-0.7,0.2c-0.2,0.1-0.5,0.1-0.8,0.1
				c-0.3,0-0.5,0-0.7,0c-0.4,0-0.8-0.1-1.2-0.2c-0.4-0.1-0.8-0.3-1.1-0.5c-0.3-0.2-0.6-0.4-0.9-0.7s-0.5-0.6-0.7-0.9
				c-0.2-0.3-0.4-0.7-0.5-1.1c-0.1-0.4-0.2-0.8-0.2-1.2c0-0.4,0.1-0.8,0.2-1.2c0.1-0.4,0.3-0.8,0.5-1.1c0.2-0.3,0.4-0.7,0.7-0.9
				s0.6-0.5,0.9-0.7c0.3-0.2,0.7-0.4,1.1-0.5c0.4-0.1,0.8-0.2,1.2-0.2c0.5,0,0.9,0.1,1.4,0.2s0.8,0.3,1.2,0.6c0.1,0,0.1,0.1,0.2,0.2
				s0,0.1,0,0.2l-1,1.4c-0.1,0.1-0.1,0.1-0.2,0.1S255.8,62.4,255.7,62.3z"/>
			<path fill="#282828" d="M258.9,67c0-0.1,0-0.1,0.1-0.2s0.1-0.1,0.2-0.1h1.6c0.1,0,0.1,0,0.2,0.1c0.1,0,0.1,0.1,0.1,0.2v1.7
				c0,0.4-0.1,0.7-0.3,1.1c-0.2,0.3-0.5,0.6-0.8,0.8c0,0,0,0-0.1,0c-0.1,0-0.1,0-0.1,0c0,0-0.1,0-0.1-0.1l-0.4-0.3
				c0,0-0.1-0.1-0.1-0.1c0,0,0-0.1,0-0.1c0-0.1,0-0.1,0.1-0.2c0.1-0.1,0.1-0.1,0.2-0.2s0.1-0.1,0.2-0.2s0.1-0.2,0.1-0.3v-0.3
				c0-0.1,0-0.1-0.1-0.1h-0.3c-0.2,0-0.2-0.1-0.2-0.3V67z"/>
			<path fill="#282828" d="M266.5,60.1c0-0.1,0-0.1,0.1-0.2c0-0.1,0.1-0.1,0.2-0.1h1.8c0.1,0,0.1,0,0.2,0.1c0.1,0,0.1,0.1,0.1,0.2
				v8.4c0,0.2-0.1,0.3-0.3,0.3h-1.8c-0.2,0-0.3-0.1-0.3-0.3V60.1z"/>
			<path fill="#282828" d="M270.8,60.1c0-0.1,0-0.1,0.1-0.2c0-0.1,0.1-0.1,0.2-0.1h2c0.1,0,0.1,0,0.2,0s0.1,0.1,0.2,0.1
				c0.5,0.8,1,1.6,1.5,2.4c0.5,0.8,1,1.6,1.5,2.4V60c0-0.1,0-0.1,0.1-0.2c0,0,0.1-0.1,0.2-0.1h1.7c0.1,0,0.2,0,0.2,0.1
				c0.1,0,0.1,0.1,0.1,0.2v8.4c0,0.1,0,0.1-0.1,0.2c0,0-0.1,0.1-0.2,0.1h-1.9c-0.1,0-0.1,0-0.1-0.1c0,0-0.1-0.1-0.1-0.1
				c-0.5-0.9-1.1-1.7-1.6-2.6s-1-1.7-1.6-2.6v5.1c0,0.1,0,0.2-0.1,0.2s-0.1,0.1-0.2,0.1H271c-0.1,0-0.2,0-0.2-0.1s-0.1-0.1-0.1-0.2
				V60.1z"/>
			<path fill="#282828" d="M287.3,60.4c0.1,0,0.1,0.1,0.1,0.2c0,0.1,0,0.1,0,0.2l-1,1.4c0,0.1-0.1,0.1-0.1,0.1c0,0-0.1,0-0.2-0.1
				c-0.2-0.1-0.4-0.3-0.6-0.3c-0.2-0.1-0.5-0.1-0.7-0.1c-0.3,0-0.6,0.1-0.9,0.2c-0.3,0.1-0.5,0.3-0.7,0.5c-0.2,0.2-0.4,0.5-0.5,0.8
				c-0.1,0.3-0.2,0.6-0.2,0.9s0.1,0.6,0.2,0.9c0.1,0.3,0.3,0.5,0.5,0.7c0.2,0.2,0.4,0.4,0.7,0.5s0.6,0.2,0.9,0.2
				c0.3,0,0.5,0,0.8-0.1c0.2-0.1,0.5-0.2,0.7-0.3c0.1,0,0.1-0.1,0.2-0.1c0,0,0.1,0,0.1,0.1l1,1.5c0,0.1,0,0.2,0,0.2
				c0,0.1-0.1,0.1-0.1,0.1c-0.4,0.3-0.8,0.4-1.2,0.6c-0.4,0.1-0.9,0.2-1.4,0.2c-0.4,0-0.8-0.1-1.2-0.2c-0.4-0.1-0.8-0.3-1.1-0.5
				s-0.6-0.4-0.9-0.7s-0.5-0.6-0.7-0.9c-0.2-0.3-0.4-0.7-0.5-1.1c-0.1-0.4-0.2-0.8-0.2-1.2c0-0.4,0.1-0.8,0.2-1.2
				c0.1-0.4,0.3-0.8,0.5-1.1c0.2-0.3,0.4-0.7,0.7-0.9s0.6-0.5,0.9-0.7c0.3-0.2,0.7-0.4,1.1-0.5c0.4-0.1,0.8-0.2,1.2-0.2
				c0.5,0,0.9,0.1,1.4,0.2C286.6,60,287,60.2,287.3,60.4z"/>
			<path fill="#282828" d="M288.8,67c0-0.1,0-0.1,0.1-0.2s0.1-0.1,0.2-0.1h1.6c0.1,0,0.1,0,0.2,0.1c0.1,0,0.1,0.1,0.1,0.2v1.4
				c0,0.1,0,0.1-0.1,0.2c0,0.1-0.1,0.1-0.2,0.1h-1.6c-0.2,0-0.3-0.1-0.3-0.3V67z"/>
		</g>
	</g>
	<g id="Shape_1_1_" enable-background="new    ">
		<rect x="169.5" y="71.9" fill="none" width="122.8" height="0.9"/>
	</g>
	<rect x="169.5" y="71.6" fill="#024795" width="122.8" height="0.9"/>
</g>
</svg>
