<?xml version="1.0" encoding="utf-8"?>
<!-- Generator: Adobe Illustrator 17.1.0, SVG Export Plug-In . SVG Version: 6.00 Build 0)  -->
<!DOCTYPE svg PUBLIC "-//W3C//DTD SVG 1.1//EN" "http://www.w3.org/Graphics/SVG/1.1/DTD/svg11.dtd">
<svg version="1.1" xmlns="http://www.w3.org/2000/svg" xmlns:xlink="http://www.w3.org/1999/xlink" x="0px" y="0px"
	 viewBox="0 0 2000.6 1663.7" enable-background="new 0 0 2000.6 1663.7" xml:space="preserve">
<g id="woman_xA0_Image_1_">
	<g>
		<g>
			<path fill="#005BB2" d="M1268.9,467.5c5.6,0,11.2,0,16.8,0c0.1,0.2,0.2,0.4,0.5,0.4c4.2,0.4,8.4,0.6,12.6,1
				c4.1,0.3,8.2,0.8,12.3,1.3c4.9,0.5,9.8,1.4,14.6,2.3c25.1,4.8,48.7,13.6,70.5,27c24.1,14.9,43.6,34.2,57.9,58.6
				c7,12,13.4,24.4,19.9,36.6c8.3,15.5,14.8,31.7,20,48.4c5.1,16.5,10.3,33.1,15.3,49.7c7.1,23.5,13.7,47.2,20.4,70.9
				c8.2,29.1,15.9,58.4,21.1,88.3c3.6,20.7,7,41.4,9,62.3c0.2,2.4,0.2,4.8,0.5,7.1c0.8,5.4,1.3,10.9,1.3,16.3c0,1.4-0.1,2.7,0,4.1
				c0.5,3.8,0.9,7.7,0.9,11.6c0,0.4-0.1,0.8,0,1.2c0.8,3.4,0.6,7,0.8,10.4c0.3,6.4-0.3,12.9-0.7,19.3c-0.2,3.3-0.4,6.7-0.7,10
				c-0.7,7.2-1.8,14.3-3.1,21.3c-4.4,23.1-13.2,44.3-26.6,63.7c-13.8,19.8-31.2,35.4-53.1,45.9c-13.8,6.6-27.8,13-41.7,19.4
				c-6.4,2.9-12.8,5.8-19.1,8.8c-7.4,3.5-12.6,8.9-14.9,16.9c-1.3,4.5-1.4,9-0.7,13.7c1.8,11.1,7.1,19.7,16.8,25.5
				c2.5,1.5,5,2.8,7.7,3.9c4.5,1.8,9.1,3.4,13.6,5.2c4.3,1.6,8.7,3.3,13,4.7c5.6,1.8,11.1,3.8,16.7,5.7c9.2,3,18.4,6.3,27.5,9.5
				c20.5,7.2,41,14.5,61.5,21.8c12.2,4.4,24.4,8.7,36.5,13.5c4.2,1.7,8.5,3.2,12.7,4.7c4.3,1.6,8.6,3.3,12.9,5.1
				c24.8,10.4,48.1,23.4,69.3,40.1c13.3,10.5,23.3,23.4,29.8,39c5,11.9,8.2,24.3,8.9,37.3c0,4.5,0,9,0,13.5c0,4.6-0.7,9-1.6,13.5
				c-1,4.8-2,9.7-4.2,14.2c-4.1,8.3-11,12.3-20.1,12.7c-0.8,0-1.6-0.1-2.4-0.1c-18.1,0-36.1,0-54.2,0.1c-8.1,0-16.1,0-24.2,0
				c-1,0-1.9-0.1-2.9-0.1c-202.2,0-404.5,0-606.7,0c-1,0-1.9,0.1-2.9,0.1c-0.9,0-1.8-0.1-2.6-0.1c-36.8,0-73.6,0-110.5,0
				c-0.9,0-1.8,0.1-2.6,0.1c-6.8,0-13.5-0.1-20.3-0.1c-5.7,0-11.4,0-17.2,0c-5.7-0.6-11.2-2.1-16.5-4.4c-4.8-2.1-8.1-5.6-9.8-10.5
				c-1.3-3.7-2.4-7.5-2.3-11.6c0-1.6-0.9-3-0.6-4.7c0.5-3-0.7-6-0.6-9c0-0.1-0.2-0.2-0.4-0.3c0-6.7,0-13.4,0-20.2
				c0.6-0.9,0.8-1.8,0.9-2.8c0.1-2.6,0.5-5.2,0.9-7.8c3.5-21.6,13.3-39.9,29-54.9c8.7-8.3,18.6-14.9,29-20.8
				c29-16.6,59.5-30.1,90.8-41.8c19.3-7.2,38.8-13.9,58.3-20.6c27.9-9.6,55.8-19.1,83.3-29.9c4.9-1.9,9.8-3.8,14.5-6.2
				c8.9-4.5,14.8-11.5,17.6-21.1c1.1-3.9,1-7.9,1.1-11.9c0.2-7.4-2.9-13.3-8.4-18c-2.3-2-5-3.4-7.8-4.6c-8.4-3.5-16.7-7.1-25.1-10.6
				c-5.6-2.3-11.1-4.6-16.7-7c-12.3-5.2-23.7-11.8-34.6-19.4c-23.9-16.6-41-38.7-52.2-65.5c-8.3-19.9-11.8-41-14.6-62.2
				c0.5-3.3-0.8-6.6-0.4-10c0.3-2.9-0.9-5.6-0.6-8.5c0.1-1.1,0.4-2.2,0.3-3.2c-0.5-5.3,0.3-10.6-0.2-16c-0.2-2.4,0.1-4.7,0.3-7.1
				c0.4-3.4,0.1-6.8,0.5-10.2c0.3-3,0.5-6,0.9-8.9c0.9-6.7,1.6-13.5,2.5-20.2c1.1-8.9,2.2-17.8,3.5-26.6
				c2.8-18.6,6.7-36.9,11.2-55.2c7.2-29.3,14.8-58.5,22.4-87.7c6.9-26.8,14.4-53.3,23.4-79.5c10.9-31.6,24-62.3,39.8-91.8
				c9.4-17.5,21.2-33.1,36.7-45.7c12-9.9,25.1-18.3,38.8-25.6c15.8-8.5,32.8-13.9,50.2-17.7c6.2-1.3,12.5-2.5,18.8-3.3
				c3.2-0.4,6.4-0.8,9.7-1.2c4.2-0.4,8.3-0.9,12.5-1.4C1265.4,468.2,1267.3,468.5,1268.9,467.5z"/>
			<path fill="#EDF3F9" d="M1021.7,1454.9c0-0.1,0-0.3,0-0.4c1.1,0,2.2-0.1,3.4-0.1c198.5,0,397,0,595.5,0c0.9,0,1.8-0.1,2.6-0.1
				c3,0.1,6.1,0.1,9.1,0.2c0,0.1,0,0.3,0,0.4C1428.7,1454.9,1225.2,1454.9,1021.7,1454.9z"/>
			<path fill="#D7E5F3" d="M1683.6,1454.5c0,0.1,0,0.3,0,0.4c-17.1,0-34.2,0-51.4,0c0-0.1,0-0.3,0-0.4c0.6,0,1.1-0.1,1.7-0.1
				c16,0,32,0,48.1,0C1682.5,1454.4,1683.1,1454.4,1683.6,1454.5z"/>
			<path fill="#94BADF" d="M1730.2,1413.6l-0.2,0.1l-0.2,0c0-4.5,0-9,0-13.5c0.1,0,0.3,0.1,0.4,0
				C1730.2,1404.6,1730.2,1409.1,1730.2,1413.6z"/>
			<path fill="#329BD0" d="M1623.1,1454.3c-0.9,0-1.8,0.1-2.6,0.1c-198.5,0-397,0-595.5,0c-1.1,0-2.2,0.1-3.4,0.1
				c-3.7,0-7.4-0.1-11-0.1c0-0.1,0-0.2,0-0.3c1,0,1.9-0.1,2.9-0.1c202.2,0,404.5,0,606.7,0c1,0,1.9,0,2.9,0.1
				C1623.1,1454.1,1623.1,1454.2,1623.1,1454.3z"/>
			<path fill="#40ACD8" d="M1010.6,1454c0,0.1,0,0.2,0,0.3c-0.6,0-1.3,0.1-1.9,0.1c-37.6,0-75.2,0-112.8-0.1c-0.3,0-0.6,0-1,0
				c0-0.1-0.1-0.2-0.1-0.3c0.9,0,1.8-0.1,2.6-0.1c36.8,0,73.6,0,110.5,0C1008.9,1453.9,1009.7,1454,1010.6,1454z"/>
			<path fill="#288ECA" d="M1623.1,1454.3c0-0.1,0-0.2,0-0.3c8.1,0,16.1,0,24.2,0c18.1,0,36.1,0,54.2-0.1c0.8,0,1.6,0.1,2.4,0.1
				c-1,0.6-2,0.4-3,0.4c-5.7,0.1-11.5,0.1-17.2,0.1c-0.6,0-1.1-0.1-1.7-0.1c-16,0-32,0-48.1,0c-0.6,0-1.1,0.1-1.7,0.1
				C1629.2,1454.4,1626.2,1454.4,1623.1,1454.3z"/>
			<path fill="#85D9ED" d="M894.9,1454c0,0.1,0.1,0.2,0.1,0.3c-2.7,0-5.4,0.1-8.1,0.1c-8.4,0-16.8,0-25.1-0.1
				c-1.4,0-2.9,0.1-4.3-0.4c5.7,0,11.4,0,17.2,0C881.4,1453.9,888.1,1454,894.9,1454z"/>
		</g>
	</g>
</g>
<g id="man_xA0_Image_1_">
	<g>
		<g>
			<path fill="#0479E0" d="M702,427.2c3.2,0,6.4,0,9.6,0c0.4,1.1,1.4,0.9,2.2,0.9c8.4-0.1,16.8,0.3,25.2,1.4
				c4.9,0.6,9.8,1.4,14.6,2.2c11.1,2,21.9,5.2,32.6,9c5.5,2,10.9,4.2,16.1,6.7c21.9,10.3,41.3,24.1,57.3,42.3
				c14.5,16.5,25.3,35.1,33,55.7c2,5.3,4,10.6,5.7,16c5.9,19.1,10.5,38.5,14.8,58c1.9,8.6,3.7,17.3,4.2,26.2
				c0.3,5.4,0.5,10.8,1.1,16.2c0.9,8.1,2.1,16.2,4.3,24c1.1,4,2.4,8,4.2,11.7c3.1,6.5,6.7,12.7,9.4,19.3c2,4.9,3.8,9.8,5.3,14.8
				c1.9,6.4,3,13.1,3.5,19.7c0.3,4.3,0,8.6,0.1,12.9c0.2,6.6-0.8,13.1-2.2,19.5c-2.9,13.5-8.1,26-15,38c-4.4,7.7-8.9,15.3-13.3,23
				c-9.1,15.9-17.8,32.1-25.1,49c-2.1,4.9-4.3,9.8-6.2,14.7c-2.2,5.5-4.4,11.1-6.7,16.6c-6,14.3-12.2,28.6-18.4,42.9
				c-6.5,14.8-13.8,29.2-22.3,42.9c-2.3,3.7-4.4,7.6-6.2,11.6c-3.7,8.3-4.7,16.9-2.6,25.7c1.4,5.7,3.8,11,7,16
				c8.1,12.8,15.4,26.1,20.9,40.3c2.2,5.6,4.1,11.2,5.7,17c2.3,8.1,6.4,15.3,12,21.6c5.5,6.1,12,10.8,19.2,14.6
				c5.3,2.8,10.9,5,16.4,7.2c5.4,2.2,10.7,4.3,16.1,6.5c8.7,3.5,17.4,7,26.1,10.6c5.5,2.2,11,4.6,16.5,6.9c5.5,2.4,10.9,4.9,16,8.2
				c3.5,2.3,5.9,5.3,6.4,9.6c0,0.3,0.2,0.4,0.4,0.5c0,1.4,0,2.9,0,4.3c-0.1,0.1-0.3,0.2-0.4,0.3c-1,5.3-4.4,8.5-9.1,10.6
				c-8.9,3.9-17.8,7.8-26.7,11.7c-16.3,7-32.7,13.7-48.8,21.1c-15.8,7.2-31.3,15-46.1,24c-11.5,7-22.6,14.6-32.4,23.8
				c-12.5,11.7-22.5,25.3-28.9,41.3c-2.4,6.1-4.3,12.4-5.4,18.8c-2.4,14.2-3.8,28.5-5.7,42.7c-1.1,7.8-2,15.7-3.9,23.4
				c-1,4.1-2.2,8.2-4.2,11.9c-3.1,5.9-7.8,9.6-14.3,11c-1.8,0.4-3.6,0.6-5.4,0.9c-0.7,0-1.4-0.1-2.2-0.1c-8.7,0-17.4,0.1-26.1,0.2
				c-1.1,0-2.2-0.1-3.3-0.1c-40.2,0-80.3,0-120.5,0c-46.2,0-92.5,0-138.7,0c-1,0-2.1-0.3-3,0.4c-0.1,0.2-0.3,0.4-0.4,0.5
				c-0.7,0-1.4,0-2.2,0c-91.8,0-183.7,0-275.5,0c-0.8,0-1.6-0.2-2.3,0.4c-1.5,0.5-2.9-0.3-4.4-0.6c-2.3-0.4-4.5-0.9-6.7-1.8
				c-7.2-3.1-11.8-8.1-13.1-16c-0.4-2.6-0.2-5.2-0.5-7.8c0-0.2,0.1-0.5,0.1-0.7c-0.4-6.2-0.3-12.5,0-18.7c0-1,0.2-1.9-0.1-2.9
				c0.4-5.9,0-11.9,1-17.8c1-6.1,2.1-12.1,3.5-18.1c7.7-30.8,23.6-56.6,47-77.9c10.3-9.3,21.6-17.3,33.6-24.3
				c26.7-15.5,54.1-29.5,82.5-41.7c18.5-8,37.1-15.9,55.8-23.4c25.3-10.1,50.7-20.2,76.1-30.2c9.1-3.6,18.5-6.7,27.4-10.8
				c10.7-4.8,20.3-11.1,28.3-19.8c9.2-10,14.9-21.8,17.9-35c0.8-3.5,1.7-7,3.1-10.3c2.3-5.3,5-10.3,8.3-15.1c2.9-4.3,6-8.5,9.2-12.6
				c3.3-4.3,6.2-8.9,8.6-13.8c3.6-7.7,4.4-15.8,3-24.1c-0.8-4.6-2.8-8.8-5.1-12.9c-2-3.6-4.4-7.1-6.6-10.6
				c-6.9-10.6-13.9-21.1-19.8-32.3c-8.8-16.6-16.4-33.7-23.6-51c-4-9.6-8-19.3-11.9-28.9c-4.6-11.4-9.5-22.6-14.7-33.8
				c-7.7-16.5-16.2-32.6-25.8-48.1c-4.3-7-7.5-14.5-9.5-22.4c-1.7-6.4-2.3-13-3.3-19.6c-0.3-2-0.8-4.1-0.9-6.1
				c-0.2-5.3,0.3-10.6,1-15.9c1.6-11.4,4.6-22.4,9.4-32.8c4.4-9.4,9.1-18.6,12.9-28.3c2.4-6.1,4.2-12.4,5.4-18.8
				c1.3-6.7,2.1-13.4,2.8-20.2c0.6-6.6,1.8-13.1,1.6-19.8c0-0.3,0-0.7,0.1-0.9c0.5-1.7,0.6-3.4,0.8-5.1c0.7-6.7,1.5-13.5,2.3-20.2
				c2.2-17.3,6.5-34,12.6-50.3c3.3-8.8,7.1-17.5,11.5-25.8c22.5-42,56.1-71.3,101.2-86.9c21.3-7.4,43.3-11.4,65.9-12.2
				c2.3-0.1,4.6-0.3,6.9-0.4c0.3,0,0.6-0.1,0.8-0.5c2.7,0,5.4,0,8.2,0c0.3,0.5,0.8,0.5,1.3,0.5c4,0,8.1,0,12.1,0
				C701.1,427.7,701.6,427.8,702,427.2z"/>
			<path fill="#ECF5FC" d="M259.9,1454.9c0-0.1,0-0.3,0-0.4c1,0,2.1-0.1,3.1-0.1c52.2,0,104.4,0,156.6,0c14.9,0,29.9,0,44.8,0
				c0,0.1,0,0.3,0,0.4C396.2,1454.9,328.1,1454.9,259.9,1454.9z"/>
			<path fill="#B1D6F5" d="M159.8,1428.1c-0.2,0-0.5-0.1-0.7-0.1c0-7.4,0-14.7,0-22.1c0.2,0,0.5-0.1,0.7-0.1
				c0.3,0.9,0.1,1.9,0.1,2.9c-0.3,6.2-0.4,12.5,0,18.7C160,1427.6,159.9,1427.8,159.8,1428.1z"/>
			<path fill="#64ACEB" d="M702,427.2c-0.4,0.6-0.9,0.5-1.5,0.5c-4,0-8.1,0-12.1,0c-0.5,0-1,0-1.3-0.5
				C692.1,427.2,697,427.2,702,427.2z"/>
			<path fill="#38B0EC" d="M464.4,1454.4c-14.9,0-29.9,0-44.8,0c-52.2,0-104.4,0-156.6,0c-1,0-2.1,0.1-3.1,0.1
				c-3.5,0-7-0.1-10.5-0.1c-20,0-40,0-60.1,0c-1.6,0-3.2-0.1-4.8-0.1c0.7-0.6,1.5-0.4,2.3-0.4c91.8,0,183.7,0,275.5,0
				c0.7,0,1.4,0,2.2,0C464.5,1454.1,464.4,1454.3,464.4,1454.4z"/>
			<path fill="#3BB4ED" d="M730.3,1453.4c-32.7,0-65.4,0.1-98.2,0.1c-55,0-110.1,0-165.1,0c-0.7,0-1.4,0-2.2,0c0.9-0.7,2-0.4,3-0.4
				c46.2,0,92.5,0,138.7,0c40.2,0,80.3,0,120.5,0c1.1,0,2.2,0.1,3.3,0.1C730.4,1453.2,730.3,1453.3,730.3,1453.4z"/>
			<path fill="#92E6F9" d="M730.3,1453.4c0-0.1,0.1-0.2,0.1-0.3c8.7-0.1,17.4-0.1,26.1-0.2c0.7,0,1.4,0.1,2.2,0.1
				c-0.7,0.4-1.4,0.3-2.1,0.3c-8.5,0.1-16.9,0.1-25.4,0.2C730.9,1453.5,730.6,1453.4,730.3,1453.4z"/>
		</g>
	</g>
</g>
<g id="plus_xA0_Image_1_">
	<g>
		<g>
			<path fill="#59A60F" d="M1713.1,192.7c0.1,0,0.2,0,0.2,0c0.4,0.5,0.2,1.1,0.2,1.6c0,40.2,0,80.3,0,120.5c0,1.2,0.3,1.5,1.5,1.5
				c40.7,0,81.3,0,122,0c0.5,0,1,0.1,1.5,0.1c0,28.5,0,57,0,85.4c-0.5,0-1,0-1.4,0c-40.1,0-80.2,0-120.4,0c-0.5,0-1,0-1.6,0
				c-0.3,0-0.6,0-1,0c-0.2,0-0.2,0-0.2,0.2c0,0.5,0,1,0,1.6c0,40.1,0,80.3,0,120.4c0,1.2-0.3,1.4-1.4,1.4c-27.1,0-54.1,0-81.2,0
				c-1.2,0-1.4-0.3-1.4-1.4c0-39.9,0-79.8,0-119.7c0-0.5,0-1,0-1.6c0.2-1.3-0.9-0.7-1.3-0.7c-41.2,0-82.3,0-123.5,0c0-6,0-12,0-18
				c0.3-0.4,0.2-0.8,0.2-1.3c0-6.8,0-13.7,0-20.5c0-0.4,0.1-0.9-0.2-1.3c0-5.1,0-10.2,0-15.4c0.3-0.3,0.2-0.7,0.2-1.1
				c0-4.4,0-8.7,0-13.1c0-0.4,0-0.8-0.2-1.1c0-4.6,0-9.1,0-13.7c41,0,82.1,0,123.1,0c1.2,0,1.5-0.3,1.5-1.5c0-40.2,0-80.4,0-120.6
				c0-0.3,0-0.6,0-0.8c-0.1-0.5,0.2-0.7,0.5-0.9c0.1,0,0.2,0,0.2,0c0.3,0.5,0.7,0.2,1.1,0.2c26.8,0,53.6,0,80.4,0
				C1712.4,192.9,1712.8,193.2,1713.1,192.7z"/>
			<path fill="#67AE24" d="M1505.3,361c0.3,0.4,0.2,0.8,0.2,1.3c0,6.8,0,13.7,0,20.5c0,0.4,0.1,0.9-0.2,1.3
				C1505.3,376.3,1505.3,368.6,1505.3,361z"/>
			<path fill="#67AE24" d="M1505.3,330.2c0.3,0.3,0.2,0.7,0.2,1.1c0,4.4,0,8.7,0,13.1c0,0.4,0,0.8-0.2,1.1
				C1505.3,340.5,1505.3,335.4,1505.3,330.2z"/>
			<path fill="#F5F9F1" d="M1714.3,401.8c-0.1,0.1-0.1,0.1-0.2,0.2C1714.1,401.8,1714.2,401.8,1714.3,401.8z"/>
		</g>
	</g>
</g>
</svg>
