<?xml version="1.0" encoding="utf-8"?>
<!-- Generator: Adobe Illustrator 17.1.0, SVG Export Plug-In . SVG Version: 6.00 Build 0)  -->
<!DOCTYPE svg PUBLIC "-//W3C//DTD SVG 1.1//EN" "http://www.w3.org/Graphics/SVG/1.1/DTD/svg11.dtd">
<svg version="1.1" id="Layer_1" xmlns="http://www.w3.org/2000/svg" xmlns:xlink="http://www.w3.org/1999/xlink" x="0px" y="0px"
	 viewBox="5.1 60.3 107.4 15" enable-background="new 5.1 60.3 107.4 15" xml:space="preserve">
<g id="EXAMPLE">
	<g enable-background="new    ">
		<path fill="#0479E1" d="M6.1,62.1c0-0.1,0-0.1,0.1-0.2s0.1-0.1,0.2-0.1h5.8c0.1,0,0.2,0,0.2,0.1c0,0,0.1,0.1,0.1,0.2v1.4
			c0,0.1,0,0.1-0.1,0.2c0,0.1-0.1,0.1-0.2,0.1H8.3v1.4h2.9c0.1,0,0.1,0,0.2,0.1c0,0,0.1,0.1,0.1,0.2v1.3c0,0.1,0,0.1-0.1,0.2
			c0,0.1-0.1,0.1-0.2,0.1H8.3v1.5h3.9c0.2,0,0.3,0.1,0.3,0.3v1.5c0,0,0,0.1,0,0.1c0,0.1-0.1,0.2-0.2,0.2H6.3c-0.1,0-0.1,0-0.2-0.1
			c0,0-0.1-0.1-0.1-0.2V62.1z"/>
		<path fill="#0479E1" d="M13.1,70.3c0-0.1,0.1-0.1,0.1-0.2c0-0.1,0.1-0.1,0.1-0.2l2.6-3.9c-0.4-0.7-0.9-1.3-1.3-2
			c-0.4-0.7-0.9-1.3-1.3-2c0,0,0-0.1-0.1-0.1c0,0,0-0.1,0-0.1c0,0,0,0,0.1,0c0,0,0.1,0,0.1,0h2c0.1,0,0.3,0.1,0.3,0.2l1.4,2.1
			l1.4-2.1c0.1-0.1,0.2-0.2,0.3-0.2h1.8c0,0,0.1,0,0.1,0c0,0,0.1,0,0.1,0c0,0,0.1,0,0.1,0c0,0,0,0,0,0.1c0,0,0,0.1-0.1,0.2l-2.7,4
			l2.7,4.1c0,0.1,0.1,0.1,0.1,0.1c0,0,0,0.1,0,0.1c0,0.1,0,0.1-0.1,0.1H19c-0.1,0-0.1,0-0.2-0.1c-0.1,0-0.1-0.1-0.1-0.2l-1.6-2.3
			l-1.6,2.3c0,0.1-0.1,0.1-0.1,0.2c-0.1,0-0.1,0.1-0.2,0.1h-2h-0.1c0,0-0.1,0-0.1,0S13.1,70.4,13.1,70.3
			C13.1,70.4,13.1,70.3,13.1,70.3z"/>
		<path fill="#0479E1" d="M24.9,62.1C24.9,62,24.9,62,24.9,62.1c0.1-0.1,0.1-0.1,0.1-0.2c0,0,0.1,0,0.1-0.1c0,0,0.1,0,0.1,0h1.5
			c0.1,0,0.1,0,0.2,0.1s0.1,0.1,0.1,0.1l0.1,0.3l3.1,7.9c0,0.1,0,0.1,0,0.2c0,0-0.1,0.1-0.2,0.1h-1.7c-0.1,0-0.2,0-0.2,0
			c0,0-0.1-0.1-0.1-0.2c-0.1-0.2-0.2-0.4-0.2-0.6c-0.1-0.2-0.1-0.4-0.2-0.6h-3.1c-0.1,0.2-0.1,0.4-0.2,0.6c-0.1,0.2-0.2,0.4-0.2,0.6
			c-0.1,0.1-0.1,0.2-0.3,0.2h-1.7c-0.1,0-0.1,0-0.2-0.1c0,0-0.1-0.1,0-0.2L24.9,62.1z M25.9,64.6c-0.1,0.2-0.1,0.4-0.2,0.6
			c-0.1,0.2-0.2,0.5-0.2,0.7c-0.1,0.2-0.1,0.5-0.2,0.7S25.1,67,25,67.2h1.8L25.9,64.6z"/>
		<path fill="#0479E1" d="M31.8,62.1c0-0.1,0-0.1,0.1-0.2c0-0.1,0.1-0.1,0.2-0.1h2c0.1,0,0.2,0.1,0.3,0.2l1.6,5.3l1.6-5.3
			c0.1-0.1,0.2-0.2,0.3-0.2h2c0.1,0,0.1,0,0.2,0.1s0.1,0.1,0.1,0.2c0.1,1.4,0.3,2.7,0.4,4.1c0.1,1.3,0.3,2.7,0.4,4.1v0
			c0,0.2-0.1,0.2-0.3,0.2H39c-0.2,0-0.3-0.1-0.3-0.3l-0.5-4.5l-1.3,4.5c0,0,0,0.1-0.1,0.1c0,0.1-0.1,0.1-0.1,0.1h-1.5
			c0,0-0.1,0-0.1-0.1c-0.1-0.1-0.1-0.1-0.1-0.1l-1.3-4.5l-0.5,4.5c0,0.2-0.1,0.3-0.3,0.3h-1.6c-0.2,0-0.2-0.1-0.2-0.3L31.8,62.1z"/>
		<path fill="#0479E1" d="M42.3,62.1c0-0.1,0-0.1,0.1-0.2c0,0,0.1-0.1,0.2-0.1h3.7c0.3,0,0.5,0,0.8,0.1c0.2,0.1,0.5,0.2,0.7,0.3
			c0.2,0.1,0.4,0.3,0.5,0.5c0.2,0.2,0.3,0.4,0.4,0.6c0.1,0.2,0.2,0.4,0.3,0.7c0.1,0.2,0.1,0.5,0.1,0.7c0,0.3-0.1,0.7-0.2,1
			s-0.3,0.6-0.5,0.9s-0.5,0.5-0.8,0.6c-0.3,0.2-0.7,0.2-1.1,0.2h-1.8v2.8c0,0.2-0.1,0.2-0.3,0.2h-1.7c-0.1,0-0.1,0-0.2-0.1
			c0,0-0.1-0.1-0.1-0.2V62.1z M46.7,64.7c0-0.1,0-0.2-0.1-0.3s-0.1-0.2-0.2-0.3c-0.1-0.1-0.2-0.2-0.3-0.2c-0.1-0.1-0.2-0.1-0.4-0.1
			h-1.2v1.9h1.2c0.1,0,0.3,0,0.4-0.1c0.1-0.1,0.2-0.1,0.3-0.2c0.1-0.1,0.1-0.2,0.2-0.3S46.7,64.8,46.7,64.7z"/>
		<path fill="#0479E1" d="M50.1,62.1c0-0.1,0-0.1,0.1-0.2c0-0.1,0.1-0.1,0.2-0.1H52c0.1,0,0.1,0,0.2,0.1c0.1,0,0.1,0.1,0.1,0.2v6.3
			h3.2c0.1,0,0.1,0,0.2,0.1c0.1,0,0.1,0.1,0.1,0.2v1.5c0,0.1,0,0.1-0.1,0.2c0,0.1-0.1,0.1-0.2,0.1h-5.2c-0.2,0-0.3-0.1-0.3-0.3V62.1
			z"/>
		<path fill="#0479E1" d="M57.1,62.1c0-0.1,0-0.1,0.1-0.2c0,0,0.1-0.1,0.2-0.1h5.8c0.1,0,0.2,0,0.2,0.1c0,0,0.1,0.1,0.1,0.2v1.4
			c0,0.1,0,0.1-0.1,0.2c0,0.1-0.1,0.1-0.2,0.1h-3.8v1.4h2.9c0.1,0,0.1,0,0.2,0.1c0,0,0.1,0.1,0.1,0.2v1.3c0,0.1,0,0.1-0.1,0.2
			c0,0.1-0.1,0.1-0.2,0.1h-2.9v1.5h3.9c0.2,0,0.3,0.1,0.3,0.3v1.5c0,0,0,0.1,0,0.1c0,0.1-0.1,0.2-0.2,0.2h-5.9c-0.1,0-0.1,0-0.2-0.1
			c0,0-0.1-0.1-0.1-0.2V62.1z"/>
	</g>
</g>
<g id="ENGINEERING_x2C__INC.">
	<g enable-background="new    ">
		<path fill="#282828" d="M65.2,62.9C65.2,62.9,65.2,62.9,65.2,62.9c0-0.1,0.1-0.1,0.1-0.1h2.3c0,0,0.1,0,0.1,0c0,0,0,0,0,0.1v0.6
			c0,0,0,0.1,0,0.1c0,0,0,0-0.1,0h-1.5v0.6h1.2c0,0,0.1,0,0.1,0c0,0,0,0,0,0.1v0.5c0,0,0,0,0,0.1c0,0,0,0-0.1,0h-1.2v0.6h1.6
			c0.1,0,0.1,0,0.1,0.1v0.6c0,0,0,0,0,0c0,0,0,0.1-0.1,0.1h-2.4c0,0-0.1,0-0.1,0s0,0,0-0.1V62.9z"/>
		<path fill="#282828" d="M68.4,62.9C68.4,62.9,68.4,62.9,68.4,62.9c0-0.1,0.1-0.1,0.1-0.1h0.8c0,0,0,0,0.1,0s0,0,0.1,0.1
			c0.2,0.3,0.4,0.6,0.6,0.9c0.2,0.3,0.4,0.6,0.6,0.9v-1.9c0,0,0,0,0-0.1s0,0,0.1,0h0.7c0,0,0.1,0,0.1,0c0,0,0,0,0,0.1v3.3
			c0,0,0,0.1,0,0.1s0,0-0.1,0h-0.7c0,0,0,0-0.1,0c0,0,0,0,0-0.1c-0.2-0.3-0.4-0.7-0.6-1c-0.2-0.3-0.4-0.7-0.6-1v2c0,0,0,0.1,0,0.1
			c0,0,0,0-0.1,0h-0.7c0,0-0.1,0-0.1,0c0,0,0,0,0-0.1V62.9z"/>
		<path fill="#282828" d="M74.3,63.8c-0.1-0.1-0.2-0.1-0.3-0.1c-0.1,0-0.2,0-0.3,0c-0.1,0-0.2,0-0.4,0.1c-0.1,0-0.2,0.1-0.3,0.2
			C73.1,64,73,64.1,73,64.2s-0.1,0.2-0.1,0.4c0,0.1,0,0.2,0.1,0.4s0.1,0.2,0.2,0.3c0.1,0.1,0.2,0.1,0.3,0.2c0.1,0,0.2,0.1,0.4,0.1
			c0.1,0,0.1,0,0.2,0s0.1,0,0.2,0v-0.6c0,0,0-0.1,0-0.1c0,0,0,0,0.1,0h0.6c0,0,0,0,0.1,0s0,0,0,0.1v1.1c0,0,0,0.1-0.1,0.1
			c-0.1,0-0.2,0.1-0.2,0.1c-0.1,0-0.2,0.1-0.3,0.1c-0.1,0-0.2,0-0.3,0.1c-0.1,0-0.2,0-0.3,0c-0.2,0-0.3,0-0.5-0.1
			c-0.2,0-0.3-0.1-0.4-0.2c-0.1-0.1-0.3-0.2-0.4-0.3c-0.1-0.1-0.2-0.2-0.3-0.4c-0.1-0.1-0.1-0.3-0.2-0.4c0-0.2-0.1-0.3-0.1-0.5
			c0-0.2,0-0.3,0.1-0.5c0-0.2,0.1-0.3,0.2-0.4c0.1-0.1,0.2-0.3,0.3-0.4s0.2-0.2,0.4-0.3c0.1-0.1,0.3-0.1,0.4-0.2
			c0.2,0,0.3-0.1,0.5-0.1c0.2,0,0.4,0,0.5,0.1c0.2,0.1,0.3,0.1,0.5,0.2c0,0,0,0,0.1,0.1c0,0,0,0.1,0,0.1l-0.4,0.5
			C74.5,63.8,74.4,63.8,74.3,63.8C74.4,63.8,74.4,63.8,74.3,63.8z"/>
		<path fill="#282828" d="M75.7,62.9C75.7,62.9,75.7,62.9,75.7,62.9c0-0.1,0.1-0.1,0.1-0.1h0.7c0,0,0,0,0.1,0s0,0,0,0.1v3.2
			c0,0.1,0,0.1-0.1,0.1h-0.7c-0.1,0-0.1,0-0.1-0.1V62.9z"/>
		<path fill="#282828" d="M77.3,62.9C77.3,62.9,77.3,62.9,77.3,62.9c0-0.1,0.1-0.1,0.1-0.1h0.8c0,0,0,0,0.1,0s0,0,0.1,0.1
			c0.2,0.3,0.4,0.6,0.6,0.9c0.2,0.3,0.4,0.6,0.6,0.9v-1.9c0,0,0,0,0-0.1s0,0,0.1,0h0.7c0,0,0.1,0,0.1,0c0,0,0,0,0,0.1v3.3
			c0,0,0,0.1,0,0.1s0,0-0.1,0h-0.7c0,0,0,0-0.1,0c0,0,0,0,0-0.1c-0.2-0.3-0.4-0.7-0.6-1c-0.2-0.3-0.4-0.7-0.6-1v2c0,0,0,0.1,0,0.1
			c0,0,0,0-0.1,0h-0.7c0,0-0.1,0-0.1,0s0,0,0-0.1V62.9z"/>
		<path fill="#282828" d="M81.1,62.9C81.1,62.9,81.1,62.9,81.1,62.9c0-0.1,0.1-0.1,0.1-0.1h2.3c0,0,0.1,0,0.1,0c0,0,0,0,0,0.1v0.6
			c0,0,0,0.1,0,0.1c0,0,0,0-0.1,0H82v0.6h1.2c0,0,0.1,0,0.1,0s0,0,0,0.1v0.5c0,0,0,0,0,0.1c0,0,0,0-0.1,0H82v0.6h1.6
			c0.1,0,0.1,0,0.1,0.1v0.6c0,0,0,0,0,0c0,0,0,0.1-0.1,0.1h-2.4c0,0-0.1,0-0.1,0s0,0,0-0.1V62.9z"/>
		<path fill="#282828" d="M84.3,62.9C84.3,62.9,84.3,62.9,84.3,62.9c0-0.1,0.1-0.1,0.1-0.1h2.3c0,0,0.1,0,0.1,0c0,0,0,0,0,0.1v0.6
			c0,0,0,0.1,0,0.1c0,0,0,0-0.1,0h-1.5v0.6h1.2c0,0,0.1,0,0.1,0s0,0,0,0.1v0.5c0,0,0,0,0,0.1c0,0,0,0-0.1,0h-1.2v0.6h1.6
			c0.1,0,0.1,0,0.1,0.1v0.6c0,0,0,0,0,0c0,0,0,0.1-0.1,0.1h-2.4c0,0-0.1,0-0.1,0s0,0,0-0.1V62.9z"/>
		<path fill="#282828" d="M87.4,62.9C87.4,62.9,87.4,62.9,87.4,62.9c0-0.1,0.1-0.1,0.1-0.1H89c0.2,0,0.3,0,0.4,0.1
			c0.1,0.1,0.3,0.1,0.4,0.2c0.1,0.1,0.2,0.2,0.2,0.4c0.1,0.1,0.1,0.3,0.1,0.4c0,0.1,0,0.2,0,0.3c0,0.1-0.1,0.2-0.1,0.3
			c-0.1,0.1-0.1,0.2-0.2,0.2c-0.1,0.1-0.1,0.1-0.2,0.2l0.6,1.1c0,0,0,0,0,0.1c0,0,0,0.1,0,0.1c0,0,0,0,0,0.1c0,0,0,0-0.1,0h-0.8
			c0,0,0,0-0.1,0c0,0,0,0,0-0.1l-0.6-1.1h-0.4v1c0,0.1,0,0.1-0.1,0.1h-0.7c0,0-0.1,0-0.1,0s0,0,0-0.1V62.9z M89.2,64
			c0,0,0-0.1,0-0.1c0,0,0-0.1-0.1-0.1c0,0-0.1-0.1-0.1-0.1c0,0-0.1,0-0.1-0.1c0,0-0.1,0-0.1,0c0,0-0.1,0-0.1,0h-0.3v0.9h0.4
			c0,0,0.1,0,0.1,0c0,0,0,0,0.1,0c0.1,0,0.1,0,0.1,0c0,0,0.1-0.1,0.1-0.1c0,0,0.1-0.1,0.1-0.1C89.2,64.1,89.2,64,89.2,64z"/>
		<path fill="#282828" d="M90.7,62.9C90.7,62.9,90.7,62.9,90.7,62.9c0-0.1,0.1-0.1,0.1-0.1h0.7c0,0,0,0,0.1,0s0,0,0,0.1v3.2
			c0,0.1,0,0.1-0.1,0.1h-0.7c-0.1,0-0.1,0-0.1-0.1V62.9z"/>
		<path fill="#282828" d="M92.3,62.9C92.3,62.9,92.3,62.9,92.3,62.9c0-0.1,0.1-0.1,0.1-0.1h0.8c0,0,0,0,0.1,0s0,0,0.1,0.1
			c0.2,0.3,0.4,0.6,0.6,0.9c0.2,0.3,0.4,0.6,0.6,0.9v-1.9c0,0,0,0,0-0.1s0,0,0.1,0h0.7c0,0,0.1,0,0.1,0c0,0,0,0,0,0.1v3.3
			c0,0,0,0.1,0,0.1s0,0-0.1,0h-0.7c0,0,0,0-0.1,0c0,0,0,0,0-0.1c-0.2-0.3-0.4-0.7-0.6-1c-0.2-0.3-0.4-0.7-0.6-1v2c0,0,0,0.1,0,0.1
			c0,0,0,0-0.1,0h-0.7c0,0-0.1,0-0.1,0s0,0,0-0.1V62.9z"/>
		<path fill="#282828" d="M98.3,63.8c-0.1-0.1-0.2-0.1-0.3-0.1c-0.1,0-0.2,0-0.3,0c-0.1,0-0.2,0-0.4,0.1c-0.1,0-0.2,0.1-0.3,0.2
			C97.1,64,97,64.1,97,64.2s-0.1,0.2-0.1,0.4c0,0.1,0,0.2,0.1,0.4s0.1,0.2,0.2,0.3c0.1,0.1,0.2,0.1,0.3,0.2c0.1,0,0.2,0.1,0.4,0.1
			c0.1,0,0.1,0,0.2,0s0.1,0,0.2,0v-0.6c0,0,0-0.1,0-0.1c0,0,0,0,0.1,0h0.6c0,0,0,0,0.1,0s0,0,0,0.1v1.1c0,0,0,0.1-0.1,0.1
			c-0.1,0-0.2,0.1-0.2,0.1c-0.1,0-0.2,0.1-0.3,0.1c-0.1,0-0.2,0-0.3,0.1c-0.1,0-0.2,0-0.3,0c-0.2,0-0.3,0-0.5-0.1
			c-0.2,0-0.3-0.1-0.4-0.2c-0.1-0.1-0.3-0.2-0.4-0.3c-0.1-0.1-0.2-0.2-0.3-0.4c-0.1-0.1-0.1-0.3-0.2-0.4c0-0.2-0.1-0.3-0.1-0.5
			c0-0.2,0-0.3,0.1-0.5c0-0.2,0.1-0.3,0.2-0.4c0.1-0.1,0.2-0.3,0.3-0.4c0.1-0.1,0.2-0.2,0.4-0.3c0.1-0.1,0.3-0.1,0.4-0.2
			c0.2,0,0.3-0.1,0.5-0.1c0.2,0,0.4,0,0.5,0.1c0.2,0.1,0.3,0.1,0.5,0.2c0,0,0,0,0.1,0.1c0,0,0,0.1,0,0.1l-0.4,0.5
			C98.4,63.8,98.4,63.8,98.3,63.8C98.4,63.8,98.3,63.8,98.3,63.8z"/>
		<path fill="#282828" d="M99.6,65.6C99.6,65.6,99.6,65.6,99.6,65.6c0-0.1,0.1-0.1,0.1-0.1h0.6c0,0,0.1,0,0.1,0c0,0,0,0,0,0.1v0.7
			c0,0.1,0,0.3-0.1,0.4c-0.1,0.1-0.2,0.2-0.3,0.3c0,0,0,0,0,0c0,0,0,0-0.1,0c0,0,0,0,0,0l-0.2-0.1c0,0,0,0,0,0c0,0,0,0,0,0
			c0,0,0,0,0-0.1s0,0,0.1-0.1c0,0,0-0.1,0.1-0.1c0,0,0-0.1,0-0.1v-0.1c0,0,0,0,0,0h-0.1c-0.1,0-0.1,0-0.1-0.1V65.6z"/>
		<path fill="#282828" d="M102.5,62.9C102.5,62.9,102.5,62.9,102.5,62.9c0-0.1,0.1-0.1,0.1-0.1h0.7c0,0,0,0,0.1,0s0,0,0,0.1v3.2
			c0,0.1,0,0.1-0.1,0.1h-0.7c-0.1,0-0.1,0-0.1-0.1V62.9z"/>
		<path fill="#282828" d="M104.2,62.9C104.2,62.9,104.2,62.9,104.2,62.9c0-0.1,0.1-0.1,0.1-0.1h0.8c0,0,0,0,0.1,0s0,0,0.1,0.1
			c0.2,0.3,0.4,0.6,0.6,0.9c0.2,0.3,0.4,0.6,0.6,0.9v-1.9c0,0,0,0,0-0.1s0,0,0.1,0h0.7c0,0,0.1,0,0.1,0c0,0,0,0,0,0.1v3.3
			c0,0,0,0.1,0,0.1s0,0-0.1,0h-0.7c0,0,0,0-0.1,0c0,0,0,0,0-0.1c-0.2-0.3-0.4-0.7-0.6-1c-0.2-0.3-0.4-0.7-0.6-1v2c0,0,0,0.1,0,0.1
			c0,0,0,0-0.1,0h-0.7c0,0-0.1,0-0.1,0s0,0,0-0.1V62.9z"/>
		<path fill="#282828" d="M110.6,63.1C110.6,63.1,110.7,63.1,110.6,63.1c0.1,0.1,0.1,0.1,0.1,0.1l-0.4,0.6c0,0,0,0-0.1,0s0,0-0.1,0
			c-0.1-0.1-0.2-0.1-0.3-0.1c-0.1,0-0.2,0-0.3,0c-0.1,0-0.2,0-0.4,0.1c-0.1,0-0.2,0.1-0.3,0.2c-0.1,0.1-0.1,0.2-0.2,0.3
			c0,0.1-0.1,0.2-0.1,0.4s0,0.2,0.1,0.4c0,0.1,0.1,0.2,0.2,0.3c0.1,0.1,0.2,0.1,0.3,0.2c0.1,0,0.2,0.1,0.4,0.1c0.1,0,0.2,0,0.3,0
			c0.1,0,0.2-0.1,0.3-0.1c0,0,0.1,0,0.1,0s0,0,0.1,0l0.4,0.6c0,0,0,0.1,0,0.1c0,0,0,0-0.1,0.1c-0.1,0.1-0.3,0.2-0.5,0.2
			c-0.2,0.1-0.3,0.1-0.5,0.1c-0.2,0-0.3,0-0.5-0.1s-0.3-0.1-0.4-0.2c-0.1-0.1-0.3-0.2-0.4-0.3c-0.1-0.1-0.2-0.2-0.3-0.4
			c-0.1-0.1-0.1-0.3-0.2-0.4c0-0.2-0.1-0.3-0.1-0.5c0-0.2,0-0.3,0.1-0.5c0-0.2,0.1-0.3,0.2-0.4c0.1-0.1,0.2-0.3,0.3-0.4
			c0.1-0.1,0.2-0.2,0.4-0.3c0.1-0.1,0.3-0.1,0.4-0.2c0.2,0,0.3-0.1,0.5-0.1c0.2,0,0.4,0,0.5,0.1C110.3,62.9,110.5,63,110.6,63.1z"/>
		<path fill="#282828" d="M111.2,65.6C111.2,65.6,111.2,65.6,111.2,65.6c0-0.1,0.1-0.1,0.1-0.1h0.6c0,0,0.1,0,0.1,0s0,0,0,0.1v0.6
			c0,0,0,0.1,0,0.1c0,0,0,0-0.1,0h-0.6c-0.1,0-0.1,0-0.1-0.1V65.6z"/>
	</g>
</g>
<g id="Shape_1_2_" enable-background="new    ">
	<rect x="64.8" y="67.5" fill="none" width="47.7" height="0.3"/>
</g>
<rect x="64.8" y="67.4" fill="#0479E1" width="47.7" height="0.3"/>
</svg>
