<?xml version="1.0" encoding="utf-8"?>
<!-- Generator: Adobe Illustrator 18.0.0, SVG Export Plug-In . SVG Version: 6.00 Build 0)  -->
<!DOCTYPE svg PUBLIC "-//W3C//DTD SVG 1.1//EN" "http://www.w3.org/Graphics/SVG/1.1/DTD/svg11.dtd">
<svg version="1.1" id="Layer_1" xmlns="http://www.w3.org/2000/svg" xmlns:xlink="http://www.w3.org/1999/xlink" x="0px" y="0px"
	 viewBox="0 0 344.9 107.1" enable-background="new 0 0 344.9 107.1" xml:space="preserve">
<path fill="#27AEE4" d="M344.9,38.7l-2.1-3.1l-4.1-2l-4.8-1l-4.2,0l-0.1,0.6l7.1,6.6l2.3,3.7l0.7-1.8l-0.3-1.4l-1.5-3h1.2l0.5,1.4
	l1,0.9l1.4,0.4l1.9-0.1l-1.2-1.2l1.8,0.1L344.9,38.7z M335.7,65.9l-9-0.4l-5.9-2.1l-2.2-0.4L305,65.4l-1.6,0.9l-2.4,2l-3.1,1.8
	l-3.4,1.3l-3.4,0.3l-0.8-0.1l-2.6,0.1l2.6,5l5,0.7l5.3-0.6l3.5,1.1l2.7-1.3l13.4-3.1l3.3-1.3l2.5-0.6l1.5,1.4h1.2l0.9-1l3.3-2.2
	l1.1-0.4l4.6,0.3l1.2-0.6l-1.7-2.1L335.7,65.9z M279.9,47l-1.2-1.3l0.7-2.2l-0.7-2.1l0.4-7.5l1.7-8.8l-0.1-1.2l-1.4-0.4l-1.4,0.9
	l-1.3,1.3l-1.2,0.6l-7.7-0.6l-4-1l-1.7-1.6l-1.5,0.2l-8-5.6l-0.6,0.6l-0.3,0.2l-0.5,0.1l-1,0.3l0.6-1.4l0-0.5l-0.3-0.5l-0.3-1.2
	l-2.8,2.1l-2.5-0.6l-3-1.6l-5.5-1.2l-2.1-1.6l-1.7-0.7l-10.9-0.2l-3.9-0.8l-2.2-0.2l-1.5,0.4l-2.9,1.7l-2.1,0.4l-2.8-0.6L196.4,8
	l0.9,2.9l2.5,2.4l3.1,1.6l2.8,0.4v1.3l-5.6,1.7l-2.6-0.2l-1.1-2.2l-0.6-2.6l-1.4-1.5l-1.3-1.8l-0.3-3.2l-1.6,0.8l-1.4,1.1l-2.7,2.8
	l-0.6-1l-1.2-1.5L184.7,8l-3.8,2.2l-9-2.9l-7.8,2.3l-13.4-4l-14.5,2.9l-6.8-2l-11-0.1l-2.8,0.5l-4.5-1.6l-4.5-0.6l-9.7,0.9l-6.7,1.5
	l-2.6-0.2l-6.4-2.2l-2.4-0.3L60.1,5.6L43.2,3l-6.2-2.7L28,0l-8.5,2.5L15.1,8l0.2,4.4l1.2,3.1l0.2,2.7l-2.8,3.3l-2.4,1.5l-3.2,1.3
	l-3.6,0.8l-3.6-0.1L0,29.6l1.4,5.3l2.6,4.5l2.4,1.9l3,0.4l2.3,1.2l1.8,1.9l5.7,9.7l0.7,1.5l-0.2,2l-0.9,2l-1.4,1.5l-1.7,0.6
	l-1.8,15.9v3.7l-0.3,1.1l-1.5,2.7l-0.5,1.2l3.6,1.1l1.6,0.9l0.7,0.9l-0.6,1.3l-1.3,0.7l-1.5,0.5l-1.2,0.7l-1.4,2.7l-0.9,4.1l0.4,3.7
	l2.5,1.7l1.3-0.5l2.1-2.3l1.8-0.9l1.8-0.1l3.8,1.1l2,0.3l2.5-0.6l2.8-1.5l2.4-2l1.2-2.1l3.1,1.4l6.8,1.1l2.9,1.2l3.8,4.1l2.4,1.8
	l3.2,0.4l0.1-1.7l0.3-1.2l0.7-0.8l0.9-0.1l1.9,0.2l2.6-0.3l5.3,0.2l3.6-0.5l3.9-1.1l3.4-1.8l2-2.7h-2.3v-1.3l2.2-1.3l2.3-0.5
	l1.5,0.7l-0.2,2.4h7l5.1,2l1.3,0.3l7-1l2.9,0.3l1.2,2l1.2-0.5l1.2-0.8l2.7,1.4l2-0.4l1.8-1.1l1.8-0.9l5.6-0.3l2.5-0.5l2.4-1.8
	l1.3,1.3l3.7-1.5l2.9,1.9l2.7,3.2l3.3,2.6l3.5,0.4l4.9-3.3l3.9-1l2.8-0.2l1.5,0.4l2.1,1.2l0.9,1l0.6,1.2l0.9,1l1.6,0.4l4.7,0.5
	l2.4,0.6l2-0.5l3.3-3l1.6,1.2l0.7,1.1l-0.4,0.9l-1.9,0.5l0.1,0.8l0.2,0.5l0.7,1.1l1.4-0.9l1.7-0.1l1.9,0.1l2.1-0.2l10-5.3l3.5-0.9
	l5.2,0.1l1.2-0.1l5-2l2.1-0.4l3.5,0.3l3.9,0.8l3.9,0.1l10.9-6.1l5.4-5.5l0.4-1.2l0.1-2.5l0.9-1.1l3.9-0.8l0.9-0.5l0.6-2.8l3-6.7
	l5.3-7.6l3-2.9l2.8-1.3l3.3-0.8l3.1-1.5l3-1L276,57l1.9-3.2l4.7-1.8l0.4-2.4l-1.2-1.6L279.9,47z"/>
</svg>
