<?xml version="1.0" encoding="utf-8"?>
<!-- Generator: Adobe Illustrator 17.1.0, SVG Export Plug-In . SVG Version: 6.00 Build 0)  -->
<!DOCTYPE svg PUBLIC "-//W3C//DTD SVG 1.1//EN" "http://www.w3.org/Graphics/SVG/1.1/DTD/svg11.dtd">
<svg version="1.1"
	 id="Virgin_Islands" xmlns:dc="http://purl.org/dc/elements/1.1/" xmlns:sodipodi="http://sodipodi.sourceforge.net/DTD/sodipodi-0.dtd" xmlns:inkscape="http://www.inkscape.org/namespaces/inkscape" xmlns:svg="http://www.w3.org/2000/svg" xmlns:cc="http://creativecommons.org/ns#" xmlns:rdf="http://www.w3.org/1999/02/22-rdf-syntax-ns#" inkscape:version="0.48.4 r9939" sodipodi:docname="SVG Map of Virgin Islands.svg"
	 xmlns="http://www.w3.org/2000/svg" xmlns:xlink="http://www.w3.org/1999/xlink" x="0px" y="0px" viewBox="49.2 12.1 528.7 790.5"
	 enable-background="new 49.2 12.1 528.7 790.5" xml:space="preserve">
<g id="Islands">
	<g>
		<path d="M235,803.2c-0.8-0.9-1.8-1.6-2.3-2.7c-1.1-2.1-0.8-4.6,1.1-6.1c1.6-1.2,3-2.7,5-3.3c1.1-0.3,1.6-1.2,2-2.2
			c1-2.6,2.1-5.2,3.1-7.8c0.5-1.3,1.3-2.5,2.2-3.6c2.1-2.4,4-5,5.9-7.5c0.4-0.5,0.7-1.1,0.7-1.7c0.4-4.5-0.3-8.8-2.4-12.8
			c-1.5-2.6-2.4-5.4-3.3-8.2c-1.1-3.8-2.5-7.6-4.1-11.3c-0.9-2-1.4-4.1-1.3-6.3c0-1.4,0-2.9,0-4.3c-0.1-1.9,0.3-3.6,1.2-5.3
			c1.3-2.3,1.9-4.9,3.1-7.3c0.8-1.5,1.7-2.7,3.4-3.1c1.8-0.5,3.1-1.5,3.7-3.4c0.3-1,1-1.9,1.9-2.4c2.3-1.2,4.4-2.5,6.9-3.3
			c1.8-0.6,3.6-0.4,5.4,0.3c3.3,1.1,6.2,3,9.5,4.1c2.4,0.8,4.8,1.7,7.4,1.5c1.5-0.1,2.9,0.1,4.2,0.8c1.3,0.7,2.6,0.8,3.9,0.8
			c3.7,0,7.4,0.1,11-0.7c0.2,0,0.3,0,0.5-0.1c4.2-2.2,9.2-2.2,13.2-4.8c0.9-0.6,2-1,3-1.4c2.1-0.9,4-1.9,5.6-3.6
			c1.2-1.3,2.9-2.3,4.6-3c1.5-0.6,3-1.2,4-2.5c0.4-0.5,0.9-0.6,1.5-0.6c0.4,0,0.8-0.1,1.2,0c4.2,0.6,7.7-1.1,10.9-3.5
			c1.6-1.2,3.3-1.5,5.2-1.2c0.9,0.1,1.7,0.2,2.6,0.2c1.2,0,2.2,0.2,3.2,0.8c0.6,0.4,1.3,0.7,2,0.8c3.1,0.5,6.1,1.2,9.1,2.2
			c1.3,0.4,2.6,0.8,3.9,1.2c1,0.3,2,0.7,3,0.8c2,0.2,2.8,1.1,2.9,3.1c0.1,2.3,0,4.6,0,7c0,0.6,0,1.1,0,1.7c0,0.6-0.2,1.4,0.6,1.7
			c0.8,0.2,1.4-0.3,1.7-1c0.7-1.9,1.5-3.5,3.4-4.5c0.7-0.4,0.6-1.3,0.6-2c0.1-1.8-0.1-3.7,0.2-5.5c0.3-2.1,0.6-2.2,2.6-2.3
			c3.9-0.1,6.9,1.4,8.9,4.9c2,3.6,4.3,6.9,6,10.6c0.7,1.4,2,2,3.4,2.5c1.9,0.8,3.9,1.4,5.8,2.2c1.2,0.4,2.1,1.1,2.8,2.1
			c1.1,1.5,2.5,2.7,3.4,4.4c0.1,0.2,0.2,0.4,0.4,0.6c3.4,2.4,6,5.7,10,7.4c1,0.4,2,1,2.8,1.7c1.7,1.7,3.7,1.9,6,1.2
			c2.2-0.7,4.2-1.3,5.6-3.4c0.8-1.2,1.8-1.2,3.2-0.6c0.4,0.2,0.9,0.4,1.3,0.7c1.4,0.9,2.6,1,3.9-0.2c1.2-1.2,2.5-1,3.9-0.1
			c1.7,1,3,0.9,4.4-0.2c0.6-0.5,0.5-0.9,0-1.4c-0.7-0.6-1.5-0.9-2.4-0.8c-2,0.1-3.8-0.2-5.4-1.5c-0.8-0.7-1.8-0.5-2.7,0.1
			c-0.9,0.6-1.7,1.3-2.8,0.5c-1.1-0.9-0.8-2.2-0.7-3.3c0.2-1.2,0.9-2.1,2.2-2.2c1.8-0.2,3.7-0.4,5.4,0.7c1.1,0.7,2.2,0.7,3.4,0.4
			c1-0.3,1.7-0.7,2.1-1.8c0.2-0.7,0.6-1.3,1.1-1.8c0.9-1.1,2-1.6,3.4-1.2c1.1,0.3,2.2,0.4,3.3,0.4c0.7,0,1.5,0,2.1-0.5
			c1.6-1.4,3.2-1,4.9-0.2c1.2,0.6,2.3,1,3.6,1.1c1.6,0,3-0.2,4-1.7c0.8-1.1,2-1.6,3.3-1.7c2.2,0,4.6-0.4,6.7,0.1
			c3.3,0.7,6.7,1.3,9.5,3.2c2.1,1.4,4.3,1.7,6.6,1.5c6-0.6,12.1-0.8,18.2-0.9c2.2,0,4.3,0.4,6.3,1.3c3.7,1.6,7.4,1.7,11.2,0.4
			c3.1-1.1,6.2-1.8,9.6-1.7c2.6,0.1,5.3-0.1,7.9-0.1c0.7,0,1.4-0.1,2.1-0.6c3.3-2.2,6.5-1.1,9.5,0.4c2.1,1.1,4,2.6,6.2,3.6
			c0,1.1,0,2.2,0,3.4c-0.5,0.9-0.9,1.8-1.7,2.6c-1.9,1.7-3.9,3.3-6.1,4.6c-1.7,1-3.6,1.7-4.9,3.4c-0.3,0.4-0.8,0.6-1.3,0.6
			c-1.7,0-3.5,0.2-5.2-0.6c-1.3-0.6-2.6-1.3-4.1-1.2c-2.4,0.1-4.8-0.1-7.2,0c-2.4,0.1-4.8,0.7-6.6,2.4c-1.7,1.6-3.5,3.3-4.8,5.3
			c-0.6,1-1.5,1.8-2.5,2.5c-2.6,1.8-5.5,2.9-8.5,3.7c-2.1,0.5-4.2,1-6.2,1.5c-4.7,1.2-8.3,4.1-11.9,7c-2.6,2.2-5.2,3.3-8.5,2.8
			c-3.7-0.6-7.3-0.4-11-0.3c-2.8,0.1-5.5,0.8-7.2,3.6c-0.6,1-1.6,1.8-2.5,2.6c-1,0.8-1.5,1.8-1.6,3.1c-0.3,2.9-1.4,3.6-4.1,2.7
			c-0.4-0.1-0.8-0.3-1.1-0.4c-1.4-0.6-2.7-0.5-4.2,0c-2.2,0.8-4.2,1.8-6.6,2.2c-1.3,0.2-2.3,1-3.4,1.7c-0.9,0.7-1.8,1.3-2.7,2
			c-1.3,1-2.7,1.4-4.3,1.3c-1-0.1-2.1-0.1-3.1-0.3c-1.3-0.2-2.8-0.5-4,0.3c-2.7,1.9-6,2.1-9.1,2.7c-1.3,0.2-2.4,0.7-3.5,1.4
			c-3.6,2.6-7.7,2.9-11.6,1.5c-3.2-1.2-6.3-2.8-8.6-5.5c-0.5-0.6-1-1.1-1.8-1c-2.1,0-4.1-0.2-6.1,0.7c-2.2,1-4.5,1-6.4-0.9
			c-0.7-0.7-1.5-0.9-2.4-0.8c-1.2,0-2.4,0-3.6,0.2c-1.9,0.2-3,1.4-2.9,3.4c0,0.8,0.2,1.6,0.3,2.4c0.2,2.3-0.6,3.3-2.9,3.3
			c-1.7,0-3.2,0.3-4.6,1.2c-1.3,0.8-2.6,1.6-3.7,2.7c-0.7,0.7-1.6,1.6-2.6,1.6c-3.1,0.2-6.2,0.7-9.2-0.5c-1.4-0.6-2.8-0.7-4.2-0.8
			c-4.3-0.2-8.4,0.2-12.6,1.2c-2.2,0.5-4.5,0.4-6.6,1.2c-1.2,0.5-2.5,0.6-3.8,0.6c-2.8-0.1-5.6,0.2-8.3,0.5
			c-4.4,0.5-8.6,1.8-12.7,3.4c-3.9,1.5-7.8,3.3-11.2,5.9c-0.3,0.2-0.7,0.4-1.1,0.5c-3.3,0.3-6.5,0.7-8.9-2.5c-1.6-2.1-4-3.4-6.5-3.9
			c-2.6-0.5-5.5-0.5-8.1,0.2c-3,0.7-5.8,0.7-8.8,0.3c-2.9-0.3-5.8-0.1-8.5,0.8c-3.4,1.1-6.9,1.9-10.1,3.6c-1.2,0.6-2.4,0.7-3.7,0.7
			c-1.1,0-2.3,0-3.3,0.6c-2.7,1.5-5.4,2.9-7,5.6C237.8,803.2,236.4,803.2,235,803.2z"/>
		<path d="M49.7,92.3c0.5-0.5,1.1-0.9,1.6-1.4c1.4-1.7,3-3.3,4.9-4.5c0.5-0.3,1.2-0.6,1.2-1.4c0-0.4-0.4-1,0.1-1.3
			c0.8-0.5,1.7-0.2,2.6-0.2c1.4,0.1,1.8,0.5,1.7,2c-0.4,4.7-1.8,8.2-6.7,10.3c-1.1,0.5-2.2,0.4-3.3,0.1c-0.7-0.2-1.3-0.5-2-0.8
			C49.7,94.2,49.7,93.2,49.7,92.3z"/>
		<path d="M234.5,12.6c0.4,0.3,0.8,0.5,1.2,0.7c2.4,1.2,3.1,4,1.6,6.1c-0.6,0.8-1.4,1.5-2.4,1c-1.2-0.5-2.5-1.1-3.6-1.9
			c-1.7-1.3-1.7-4-0.2-6C232.2,12.6,233.4,12.6,234.5,12.6z"/>
		<path d="M316.2,120.5c0.9,0.1,1.5,0.1,2,0.2c1.4,0.3,1.9,1.4,0.9,2.4c-2,2-3.6,4.3-6.1,5.8c-1.7,1-3.3,1.2-4.8-0.1
			c-1-0.9-2.1-1.5-3.4-1.7c-1.3-0.2-2.1-1.1-2.8-2.1c-0.7-1-1.5-1.4-2.6-1.4c-1,0-2-0.1-2.5-1.1c-1.3-2.4-3.4-2-5.5-1.5
			c-1.3,0.3-2.6,0.6-4,0.6c-1.4,0-2.5-0.3-3.2-1.6c-0.2-0.4-0.6-0.7-1-1c-0.7-0.6-1.5-0.5-2.1,0.2c-0.2,0.2-0.4,0.5-0.6,0.8
			c-1.4,3.1-3.7,3.5-7.8,2.3c-2.1-0.6-2.3-0.6-2.8,1.5c-0.1,0.5-0.2,1.1-0.3,1.6c-0.2,1,0.1,1.6,0.8,2.3c2.1,1.8,2.1,4.3,1.9,6.8
			c-0.1,0.8-0.7,1-1.4,0.9c-0.8-0.1-1.4-0.6-2-1.2c-1.8-1.9-3.9-3.3-6.8-2.9c-0.9,0.1-1.8-0.1-2.4-0.8c-2.4-2.9-5.8-3.2-9.2-3.3
			c-2.6-0.1-5.1-0.4-7.6-0.7c-2.2-0.3-4.2-1-5.6-2.9c-0.7-1-1.7-1.5-2.9-2.1c-4.7-2.2-8.9-5.1-11.9-9.4c-1-1.4-2.1-2.8-3.2-4.2
			c-1.3-1.8-1.3-2.7,0-4.6c0.6-0.8,1.2-1.7,2-2.3c0.9-0.7,0.7-1.3-0.4-1.7c-1-0.3-2-0.5-3.1-0.5c-1.7-0.1-3.3-0.3-4.9-1
			c-2.3-1-4.7-0.2-7.1,0.1c-0.7,0.1-0.6,0.7-0.3,1.1c1.3,1.6,1.9,3.7,3.4,5.2c0.7,0.7,1.2,1.5,1.3,2.5c0.1,0.9,0.3,1.8-0.7,2.3
			c-1,0.6-2.5,0.6-3.1-0.3c-2.1-2.8-5-5.1-6.2-8.7c-0.9-2.7-5.3-4-7.7-2.6c-2.6,1.5-4.8,3.5-6.3,6.1c-0.8,1.4-1,1.4-2.4,0.7
			c-0.4-0.2-0.8-0.5-1.3-0.6c-1.3-0.3-2,0.1-2.1,1.5c-0.1,0.8-0.1,1.6-0.2,2.4c-0.1,0.6-0.4,1.3-1.1,1.5c-0.8,0.2-1.6-0.1-1.8-0.8
			c-0.9-2.7-3-2.9-5.4-2.8c-1.6,0-2.3-0.7-2.6-2.3c-0.3-2.1-1.4-3.9-2.5-5.6c-0.9-1.3-1.8-2.6-2.7-4c-0.7-1.1-1.6-2-2.7-2.7
			c-2.9-1.9-5.3-4.3-7.9-6.6c-0.5-0.5-1-1-1.4-1.6c-2.4-3-5.2-3.3-8.3-0.9c-0.9,0.7-1.8,1.3-2.6,2.2c-1.2,1.4-2.8,2.1-4.7,2
			c-2.2-0.2-4,0.4-5.6,2.1c-1.8,1.9-3.6,1.8-5.8,0.2c-2.8-2.1-5.4-1.8-7.7,1c-2.5,3-6.2,2.9-8-0.5c-1.6-2.8-3.8-4.7-6.7-5.9
			c-1.4-0.6-2.8-1.2-4.1-1.9c-3.1-1.7-3.3-5-0.5-7.2c2.4-1.9,5.1-3.4,7-5.8c0.3-0.4,0.7-0.7,0.9-1.1c1.6-2.2,3.5-2.9,5.7-1.6
			c2.9,1.8,5.7,1.9,8.7,0.8c0.7-0.3,1.6-0.4,2.4-0.4c2.6,0,4.7-1.5,7.1-1.9c0.9-0.2,1.4-1.1,1.7-1.9c0.2-0.7,0.2-1.4,0.3-2.1
			c0.2-2.2,0.9-2.7,3.1-2.4c1.6,0.2,3,0.9,4.3,1.9c2.3,1.8,2.6,1.7,5-0.1c1.2-0.9,1.9-2.1,2.6-3.4c2-3.5,3.9-4.3,7.7-3
			c2,0.7,4,0.5,5.9,0.4c2.4-0.1,4.6,0.4,6.5,1.8c1.5,1.1,3.3,1.6,5.2,1.6c4,0,8,0,12,0c2.6,0,3-0.4,3.3-3c0.4-3.5,1.7-4.1,4.5-1.9
			c3.4,2.6,6.8,5.1,8.8,9.3c1.4,2.9,3.7,5.4,6.5,7.2c3.8,2.5,9,2.2,12-1.1c2.3-2.5,5-3.2,8.2-3.1c2,0.1,4,0,6,0c1,0,2,0,2.9-0.2
			c4.1-1.2,8,0.2,12,1.1c0.8,0.2,1.4,0.7,1.9,1.3c2.4,2.8,5.2,5.2,8.4,7.1c0.8,0.5,1.7,1,2.3,1.7c2.3,2.4,5.4,3.5,8.3,4.5
			c2.1,0.7,4.4,0.7,6.6,0.8c2.6,0.1,4.8,1.1,6.9,2.4c1.1,0.7,1.5,1.8,1.5,3.1c-0.1,4.1,2.9,6.2,5.8,8.2c0.7,0.5,1.7,0.4,2.6,0.4
			c1,0,2.1,0,3.1,0.1c1,0.1,1.8,0.6,2.2,1.6c0.8,2.5,2.4,4.4,4.5,6c2.9,2.2,2.7,3.7-0.3,5.7c-1.1,0.7-2.4,1.3-3.4,2.3
			c-0.6,0.6-1.1,1.2-0.8,2.1c0.3,0.9,1.1,0.8,1.8,0.8c1.6,0,3.2,0,4.8,0c1.8,0,3.2-0.9,4.6-1.9c1.5-1.1,3.2-1.7,5.1-1.6
			c1.6,0,2.8,0.8,3.8,1.8c1.4,1.4,0.8,3.3-1.1,3.5c-1.5,0.2-3,0.1-4.5,0.2c-0.7,0-1.4,0-2.2,0c-1.3,0.1-2.1,0.7-1.9,1.3
			c0.2,0.8,1.8,1.8,2.7,1.5c0.6-0.2,1.2-0.5,1.7-0.8c1.2-0.5,2.4-0.7,3.7-0.3c1.5,0.4,1.8,1.1,0.9,2.4
			C317.5,119.1,316.9,119.6,316.2,120.5z"/>
		<path d="M343.7,95.9c-0.4,0-0.6,0-0.7,0.1c-1,0.3-2,0.5-2.6-0.4c-0.6-0.9-0.5-2,0.1-3c1.5-2.4,2.9-4.8,5.5-6.2
			c2.5-1.4,4.2-3.4,4.7-6.3c0-0.2,0.2-0.5,0.2-0.7c0.8-2,1.5-2.2,3.1-0.9c0.8,0.6,1.5,1.2,2.4,1.6c1.3,0.6,2,0.3,2.3-1.1
			c0.1-0.5,0.1-1,0.2-1.4c0.5-2.3,2-3.6,4.3-3.7c2.1-0.1,4.1-0.3,6.2-0.4c1.6-0.1,3.2-0.5,4.5-1.4c1-0.7,2.2-0.9,3.4-0.9
			c2,0,4-0.1,6-0.1c1.1,0,2.1-0.1,3.1-0.5c2.3-0.9,4.7-1.4,7.2-1.5c2.4-0.1,4-2.9,3.2-5.2c-0.4-1.1-1.1-2-2-2.7
			c-1.2-1-2.4-1.9-3.5-2.9c-1.6-1.3-2-3.8-0.9-5.6c0.3-0.6,0.8-1,1.5-1.1c0.5-0.1,1-0.2,1.4-0.1c3.7,0.9,7.7,0.4,11.3,1.6
			c0.8,0.3,1.7,0.4,2.6,0.6c1.4,0.4,1.7,1.2,1.2,2.6c-0.3,0.9-0.9,1.5-1.6,2.1c-0.5,0.5-1.3,0.6-1.5,1.6c0.8,0.7,1.8,0.9,2.9,0.9
			c3,0.1,6.1,0.1,9.1,0.2c1.7,0,3-0.5,3.3-2.3c0.2-1,0.9-1.4,1.9-1.5c4.3-0.2,8.5,0.2,11.9,3.3c1.7,1.5,3.6,2.9,5.7,4
			c1.4,0.7,3,1.2,4.6,1.2c2.8,0,5.1,1.2,7.2,3c4.4,3.7,9.2,6.9,13.4,10.8c2.3,2.1,5.3,2.9,8.1,4c0.7,0.3,1.4,0.3,1.9,0.9
			c1.4,1.4,3.2,1.7,5,2c5.4,0.7,6.5,2.3,5.1,7.5c-0.3,1.2-0.4,2.5-0.5,3.8c-0.1,2.1-1.2,2.7-2.9,1.6c-2.7-1.8-2.7-1.8-3.5,1.4
			c-0.8,3.1-1.9,4-5.1,3.8c-1.3-0.1-2.5-0.3-3.8-0.6c-2-0.5-2.8-1.5-3-3.6c-0.2-2.2,0.1-4.5,0.7-6.6c0.4-1.5,1.4-2.6,2.8-3.5
			c1.1-0.8,1.1-1,0-1.9c-3-2.2-7.2-2-10,0.5c-1,0.8-1.8,1.8-2.8,2.6c-0.4,0.4-0.9,0.7-1.4,0.9c-0.8,0.3-1.6,0.3-2.2-0.3
			c-0.8-0.8-0.8-1.7-0.4-2.7c0.9-1.8,2-3.5,3.5-4.9c0.4-0.3,0.7-0.6,1.1-0.9c0.8-0.7,0.7-1.3-0.1-1.9c-1.6-1.1-3.1-2.5-5.1-3.1
			c-0.8-0.2-1.5-0.8-2.3-1.3c-0.7-0.4-1.4-0.8-2.2-0.9c-2.1-0.2-3.3,0.8-3,2.9c0.2,1.7,0.6,3.5,1,5.2c0.2,1.2,0.4,2.4,0.1,3.6
			c-0.5,2.3-1.8,3-4.1,2.4c-1.7-0.5-2.9-1.6-3.8-3.1c-0.6-1-1.1-2.1-1.7-3.1c-1-1.6-2.2-1.6-3.5-0.2c-1.6,1.7-1.7,2.4-0.4,4.4
			c2.1,3.1,4.2,6.2,6.4,9.3c0.7,1,1.7,1.7,2.9,1.9c0.5,0.1,0.9,0.2,1.4,0.3c3.3,0.8,4.4,1.9,4.8,5.4c0.2,1.8,0.5,3,2.4,4
			c2.5,1.4,2.2,4.6-0.3,5.9c-2.3,1.2-2.7,2-1.9,4.4c0.5,1.6,0,2.9-0.7,4.1c-1.5,2.4-1.3,4.6,0.2,7c0.6,1,1.1,2.1,1.4,3.3
			c0.7,2.6-0.6,4.9-3,5.4c-3.2,0.6-5.7-0.9-6.1-3.8c-0.1-0.5-0.1-1,0-1.4c0.1-1.4-0.5-2.1-1.7-3c-2.1-1.5-4.4-2.6-6.2-4.4
			c-1.2-1.2-1.4-1.2-2.7,0.1c-1.3,1.3-2.9,1.5-4.7,1.3c-1.4-0.1-1.9-0.8-1.9-2.2c0-1.4,0.6-2.6,1.4-3.7c0.6-0.8,1.3-1.5,1.3-2.5
			c0.1-0.9-0.1-1.8-1-2.3c-0.9-0.5-1.7-0.1-2.3,0.7c-0.2,0.3-0.5,0.6-0.8,0.9c-0.9,0.7-1.6,0.7-2.1-0.4c-0.5-1.2-1.2-1.1-2.1-0.8
			c-0.7,0.3-1.5,0.6-2.1,1.1c-1.5,1.3-3.3,1.5-5.2,1.5c-1.9,0-3.4-0.6-3.9-2.8c-0.3-1.4-1.2-2.4-2.6-2.9c-1.7-0.6-3.1-1.7-4.5-2.8
			c-1.8-1.4-3-1.2-4.6,0.4c-0.8,0.8-1.3,1.8-1.9,2.8c-2.3,3.5-6,4.9-9.7,3.7c-1.8-0.6-3-1.7-3.6-3.5c-0.3-0.8-0.5-1.5-0.7-2.3
			c-0.2-0.5-0.4-1-1-0.8c-0.6,0.1-0.6,0.7-0.5,1.2c0.1,0.6,0.2,1.3,0.4,1.9c1,2.6-0.1,4.9-1.2,7.1c-0.6,1.2-1.7,1-2.3-0.3
			c-0.9-2.1-1.9-4.2-2.1-6.6c-0.1-0.8,0.1-1.7-0.9-2c-1.1-0.3-2.3-0.1-2.8,0.9c-1.3,2.3-2.8,4.2-5.6,4.7c-1.9,2.5-4.3,2.3-6.8,1.1
			c-0.8-0.4-1.4-0.1-2.1-0.1c-4.6,0.3-5.8,0-5.2-5.5c0.1-0.9,0.4-1.7,0.9-2.5c0.5-0.9,0.2-1.4-0.8-1.5c-0.3,0-0.6-0.1-1,0
			c-3.5,0.6-5.7-1.9-7.4-6.2c-1-2.6,0.1-5.3,2.7-7.6C343.3,96.3,343.4,96.2,343.7,95.9z"/>
		<path d="M197.6,108.1c0,1.3,0.1,2.6,0,3.8c-0.2,2.2-1.6,3.1-3.7,2.2c-0.8-0.3-1.6-0.7-2.4-1.1c-2.4-0.9-4.3,0.2-4.5,2.7
			c-0.1,1.3,0,2.6-0.1,3.8c-0.2,3.9-3.6,6.8-7.4,6.4c-0.7-0.1-1.3-0.2-1.6-0.8c-0.7-1.5-1.6-2.9-1.5-4.7c0-1.1,0.2-2.1,1.2-2.7
			c1-0.6,1.3-1.5,1.3-2.7c-0.1-1.9,0.7-3.3,2.1-4.6c1.8-1.8,3.8-3.2,6.1-4.1c2.3-0.9,4.5-2.1,5.7-4.4c0.1-0.2,0.3-0.4,0.5-0.5
			c1.3-0.7,4.3,1,4.4,2.5C197.7,105.4,197.6,106.8,197.6,108.1C197.6,108.1,197.6,108.1,197.6,108.1z"/>
		<path d="M239.8,29.4c0.2,2.2-0.3,4.2-0.5,6.2c-0.2,2.3-3.2,4.8-5.4,5c-1.1,0.1-1.9-0.4-2.4-1.3c-0.4-0.7-0.7-1.4-1-2.2
			c-0.4-1-0.9-1.8-2-2.2c-2.2-0.8-2.9-2.6-3.2-4.7c-0.1-0.6-0.1-1.3,0-1.9c0.2-2-0.2-3.8-1.5-5.4c-0.9-1-1-1.9,0.3-2.8
			c0.4-0.3,0.5-0.8,0.8-1.2c1-1.1,2.1-1.3,3.4-0.5c1.7,1,3.5,2,4.9,3.4c0.9,0.9,1.9,1.7,3.2,2.1C239.1,24.9,240.3,26.6,239.8,29.4z"
			/>
		<path d="M271.7,65.2c0.8,0.1,1.7,0,2.4,0.2c2.6,1.1,5.3,0.9,8,0.9c3-0.1,6,0.4,9.1,0.4c0.5,0,1.1,0.1,1.6,0.3
			c1.2,0.5,1.9,1.8,1.4,2.9c-0.8,1.7-1.9,3.4-4,3.8c-2.4,0.4-4.7,0.9-6.9-0.7c-0.6-0.5-1.4-0.4-2.1-0.4c-3,0-5.9,0.1-8.9,0.1
			c-1,0-1.9,0.1-2.9-0.1c-1.9-0.5-2.9-1.7-2.8-3.3c0.2-2.5,1.3-3.8,3.3-4C270.6,65.3,271.1,65.3,271.7,65.2
			C271.7,65.3,271.7,65.2,271.7,65.2z"/>
		<path d="M523.5,684.6c1.5,0,3-0.1,4.6,0c1.6,0.1,2.8,0.8,3.3,2.3c0.5,1.2,0.1,2-1.1,2.5c-0.6,0.2-1.2,0.3-1.9,0.4
			c-1.6,0.1-3.1,0.5-4.6,1c-1.9,0.7-4,1-5.9-0.6c-0.3-0.2-0.7-0.4-1.1-0.5c-2-0.9-2.2-3-0.4-4.3c0.8-0.6,1.7-0.8,2.7-0.8
			C520.6,684.6,522,684.6,523.5,684.6C523.5,684.6,523.5,684.6,523.5,684.6z"/>
		<path d="M335.1,73.6c-1,0-1.9,0.1-2.9,0c-1.3-0.1-2.2-0.9-2.5-2.2c-0.3-1.3,0.1-2.1,1.4-2.6c1.2-0.4,2.4-0.8,3.7-0.9
			c2-0.1,4-0.6,5.9-1.1c0.9-0.3,1.9-0.4,2.8-0.3c1.5,0.2,2.3,1.3,1.6,2.7c-0.6,1.2-1.5,2.1-2.9,2.2c-0.7,0.1-1.6,0.1-1.9,0.8
			c-1,1.7-2.5,1.7-4.2,1.6C335.7,73.6,335.4,73.6,335.1,73.6C335.1,73.6,335.1,73.6,335.1,73.6z"/>
		<path d="M174.9,46.8c0,2.4-0.6,2.9-2.7,2.6c-1.5-0.2-2.8-0.7-3.2-2.4c-0.3-1.2-1.3-1.5-2.4-1.7c-1.6-0.3-2.4-1.1-2.7-2.3
			c-0.2-1.4,0.4-2.4,1.8-2.5c2.2-0.2,4.2,0.6,6.4,0.9c0.1,0,0.3,0.1,0.4,0.2C173.3,43.5,175.2,44.8,174.9,46.8z"/>
		<path d="M335.2,65.9c-0.6,0-1.3,0.1-1.9,0c-1.9-0.2-2.5-1.7-1.5-3.2c0.5-0.7,1.1-1.2,1.8-1.5c3.3-1.4,6.7-1.4,10.1-0.6
			c0.8,0.2,1.5,0.7,1.4,1.7c-0.1,0.9-0.4,1.6-1.4,1.7c-1.8,0.2-3.4,0.9-5,1.6C337.6,66.1,336.4,65.9,335.2,65.9z"/>
		<path d="M167.9,35.1c-2.5,0-3.2-0.5-3.9-3c-0.3-1.2-0.8-2.4-1-3.7c-0.1-1-0.3-2.3,1-2.9c1.3-0.6,3.1-0.1,3.8,1.1
			c0.8,1.3,1.6,2.5,2.7,3.6c1,1,0.9,2.4,0.4,3.6C170.4,35.2,169.1,35.1,167.9,35.1z"/>
		<path d="M309.9,89c-0.2,0-0.9,0.1-1.4-0.2c-1.3-0.8-2.8-0.7-4.2-0.7c-0.6,0-1.1,0-1.6-0.2c-0.8-0.3-0.9-1-0.5-1.8
			c0.1-0.3,0.4-0.5,0.7-0.6c2.1-0.9,4.2-1.9,6.4-2.5c1.5-0.4,3.6,1.3,4,2.7C313.9,87.9,312.9,89,309.9,89z"/>
		<path d="M316.8,138.4c-2.8,0.4-4.8-2.2-4.5-4.3c0.1-0.9,0.5-1.7,1.5-2c0.2-0.1,0.5-0.1,0.7-0.2c1.1-0.6,2.2-1.4,3.5-0.5
			c1.5,1,2.4,2.5,2.9,4.2c0.3,0.9-0.2,1.7-1.1,2.2C318.9,138.4,317.9,138.4,316.8,138.4z"/>
		<path d="M244.2,161c-2.3,0.1-3.5-1.2-4.6-2.6c-0.7-1-0.1-2.1,1.1-2.3c0.7-0.1,1.4-0.1,2.2-0.1c1.2,0,2.4,0,3.3-1
			c0.4-0.4,1-0.5,1.5-0.6c1.1-0.1,1.7,0.5,1.6,1.6C249.1,158.3,246.2,161,244.2,161z"/>
		<path d="M83.2,61.6c2,0.1,3.4,0.6,4.3,2c1.3,2-0.1,5.1-2.4,5.4c-0.8,0.1-1.4-0.2-1.7-1c-0.3-1-0.9-1.7-1.6-2.3
			c-0.8-0.7-1.5-1.4-1.2-2.6C80.9,62.3,82.2,61.6,83.2,61.6z"/>
		<path d="M135.8,129.8c-1.8,0-2.4-0.5-2.6-2.2c-0.1-0.9-0.1-1.7,0.1-2.6c0.4-1.3,1.4-1.9,2.5-1.2c1.2,0.8,2.6,1.1,3.9,1.6
			c0.9,0.3,1.7,1,1.6,2.1c-0.1,1.2-1,1.7-2.2,1.8C138,129.4,136.8,129.6,135.8,129.8z"/>
		<path d="M91.3,68.8c0-2.3,1.2-3.1,3.3-2.3c2.7,1.1,3.4,3.2,1.9,5.8c-0.5,1-0.7,2.5-2.3,2.4c-1.4-0.2-1.4-1.6-1.8-2.6
			C91.8,71,91.1,70,91.3,68.8z"/>
		<path d="M322.1,73.3c-1-0.1-2.1-0.1-3.1-0.3c-1.5-0.2-2.1-1.1-1.9-2.5c0.1-1.2,0.7-1.7,2.2-1.7c1.7,0,3.3,0.2,5,0.4
			c1.1,0.2,1.5,1,1.4,2.4c-0.1,1-0.6,1.6-1.6,1.6C323.4,73.2,322.7,73.2,322.1,73.3C322.1,73.2,322.1,73.2,322.1,73.3z"/>
		<path d="M71.8,47.6c0-2.4,3.1-4.8,5.6-4.3c0.9,0.2,1.2,0.7,1.2,1.5c0,0.9-0.4,1.7-1,2.4c-0.6,0.7-1.3,1.4-1.9,2.1
			c-0.7,0.8-1.4,1.4-2.5,0.9C72.2,49.7,71.8,48.7,71.8,47.6z"/>
		<path d="M286.7,204.7c2,0.1,4.4,2.1,4.8,3.8c0.2,1,0,1.9-0.9,2.5c-0.8,0.6-1.7,0.4-2.4-0.2c-1.1-0.8-2-1.8-3-2.7
			c-0.7-0.7-0.8-1.5-0.4-2.4C285.1,204.8,285.9,204.7,286.7,204.7z"/>
		<path d="M308.1,70.6c1,0,1.9,0,2.9,0c0.9,0,1.6,0.4,1.7,1.3c0.1,1-0.4,1.7-1.4,1.9c-0.7,0.2-1.4,0.2-2.1,0.2c-1.4,0-2.9,0-4.3,0
			c-0.9,0-1.9-0.1-1.9-1.3c-0.1-1,0.8-1.9,1.9-2.1c0.5-0.1,1.1-0.1,1.7-0.1C306.9,70.6,307.5,70.6,308.1,70.6
			C308.1,70.6,308.1,70.6,308.1,70.6z"/>
		<path d="M256.1,158.8c-0.1,1.1-0.5,2.3-1.3,3.4c-0.8,1.1-3.3,1-4.3,0c-0.9-0.9-0.7-2.3,0.6-3.3c0.9-0.7,1.7-1.7,3-1.9
			C255.6,156.7,256.1,157.1,256.1,158.8z"/>
		<path d="M499,105.4c-0.1,1-0.3,2.1-1,3c-0.6,0.8-1.5,0.9-2.4,0.7c-1-0.3-1.5-0.9-1.5-1.9c0-0.8-0.1-1.6,0-2.4
			c0.2-1.3,1.5-2.5,2.6-2.4C497.9,102.4,498.9,103.7,499,105.4z"/>
		<path d="M275.9,129.8c-0.2,0-0.8-0.1-1.4-0.4c-1.3-0.7-1.6-2-0.7-3.2c0.9-1.1,3.2-1.8,4.6-1.3c0.9,0.3,1.4,1,1.6,1.9
			c0.1,1-0.2,1.7-1.1,2.2C278.1,129.4,277.3,129.7,275.9,129.8z"/>
		<path d="M478,704.9c-0.1,1.7-0.8,2.9-2,3.7c-1.3,0.9-2.5,0.3-2.6-1.4c-0.1-1.6,0.8-2.9,1.4-4.2c0.5-0.9,2.2-0.4,2.8,0.8
			C477.9,704.2,477.9,704.6,478,704.9z"/>
		<path d="M332.3,106.2c0-0.2,0-0.3,0-0.5c0.1-1.4,1.4-3,2.5-3.1c1-0.1,1.8,1.2,1.9,2.9c0.1,1.7-0.8,2.9-2.3,3.1
			C333,108.9,332.3,108.1,332.3,106.2z"/>
		<path d="M327.7,141.3c-1.3,0-3-1.2-3.4-2.5c-0.3-1.1,0.3-1.9,1.4-2c1.4-0.2,3.1,0.9,3.6,2.2C329.7,140.4,329,141.3,327.7,141.3z"
			/>
		<path d="M87.3,15.3c0.1-1.6,0.5-2.2,1.6-2.1c1.2,0.1,1.8,0.9,1.6,2.4c-0.1,1.3-0.6,1.9-1.7,1.8C87.7,17.4,87.2,16.8,87.3,15.3z"/>
		<path d="M76,22.7c-0.9,0-1.6-0.2-1.6-1.3c-0.1-1.2,1-2,2.7-2.1c1.3,0,1.9,0.4,1.9,1.3C78.8,21.7,77.4,22.7,76,22.7z"/>
		<path d="M348.9,67.9c-0.1,0-0.2,0-0.2,0c-0.7-0.1-1.9,0.3-2.1-0.7c-0.2-1,1-1.2,1.7-1.7c0.2-0.2,0.6-0.1,0.9-0.2
			c1.2,0,2.3,0.6,2.2,1.4c-0.1,1.2-1.2,1-2,1.1C349.2,67.9,349,67.9,348.9,67.9C348.9,67.9,348.9,67.9,348.9,67.9z"/>
		<path d="M351,62.2c0.1-0.8,0.1-1.5,1.1-1.5c0.7,0,1.1,0.4,1.1,1.2c0,1.1-0.6,2-1.3,1.9C350.9,63.7,351.1,62.8,351,62.2z"/>
	</g>
</g>
</svg>
